<svg width="636" height="255" viewBox="0 0 636 255" fill="none" xmlns="http://www.w3.org/2000/svg">
<g clip-path="url(#clip0_879_1253)">
<path d="M146.454 353L146.454 264.53L149.157 264.53L149.157 273.881C149.157 291.143 153.363 293.301 167.783 293.301L485.423 293.301L485.423 194.761L167.783 194.761C153.363 194.761 149.157 196.559 149.157 213.822L149.157 223.532L146.454 223.532L146.454 134.702L149.157 134.702L149.157 147.649C149.157 164.911 153.363 166.71 167.783 166.71L469.5 166.71C483.92 166.71 488.126 164.911 488.126 147.649L488.126 134.702L490.83 134.702L490.83 353L488.126 353L488.126 340.413C488.126 323.15 483.92 321.352 469.5 321.352L167.783 321.352C153.363 321.352 149.157 323.15 149.157 340.413L149.157 353L146.454 353Z" fill="#DCE3DF"/>
<rect width="158" height="217" transform="matrix(4.37114e-08 1 1 -4.37114e-08 146 195)" fill="#525252"/>
<path d="M146.454 119L146.454 30.5301L149.157 30.5301L149.157 39.8805C149.157 57.143 153.363 59.3008 167.783 59.3008L485.423 59.3007L485.423 -39.239L167.783 -39.239C153.363 -39.239 149.157 -37.4408 149.157 -20.1783L149.157 -10.4682L146.454 -10.4682L146.454 -99.2978L149.157 -99.2978L149.157 -86.351C149.157 -69.0886 153.363 -67.2904 167.783 -67.2904L469.5 -67.2904C483.92 -67.2905 488.126 -69.0886 488.126 -86.3511L488.126 -99.2979L490.83 -99.2979L490.83 119L488.126 119L488.126 106.413C488.126 89.1504 483.92 87.3522 469.5 87.3522L167.783 87.3522C153.363 87.3522 149.157 89.1504 149.157 106.413L149.157 119L146.454 119Z" fill="#DCE3DF"/>
</g>
<path d="M511.005 24.8387L511.006 24.8389L578.081 47.3C578.082 47.3 578.082 47.3 578.082 47.3C578.717 47.5132 579.169 48.0769 579.24 48.7409L579.243 48.7737C579.303 49.4515 578.955 50.1009 578.357 50.4269L578.357 50.427L559.766 60.569L558.889 61.0475L559.593 61.7561L578.106 80.3823C578.771 81.052 578.769 82.1332 578.102 82.8003L566.8 94.1019C566.8 94.102 566.8 94.1021 566.8 94.1021C566.132 94.7696 565.051 94.7708 564.382 94.106L564.382 94.1058L545.756 75.5931L545.047 74.8887L544.569 75.7658L534.427 94.3578L534.427 94.3582C534.125 94.911 533.547 95.25 532.924 95.25C532.877 95.25 532.827 95.2477 532.772 95.2431C532.094 95.1828 531.516 94.7269 531.3 94.0811L508.839 27.0062C508.839 27.0062 508.839 27.0061 508.839 27.0061C508.633 26.3901 508.792 25.7109 509.251 25.2518C509.711 24.7926 510.391 24.6324 511.005 24.8387ZM554.852 61.8434L554.851 61.8431C554.472 61.4619 554.294 60.9233 554.372 60.3899C554.449 59.8568 554.773 59.3913 555.246 59.1331C555.246 59.133 555.246 59.133 555.246 59.133L571.762 50.1232L573.271 49.2997L571.641 48.7536L514.605 29.6542L513.178 29.1763L513.656 30.6036L532.756 87.6384L533.302 89.269L534.125 87.7594L543.134 71.2448C543.135 71.2448 543.135 71.2447 543.135 71.2447C543.393 70.7722 543.858 70.4482 544.39 70.3703C544.475 70.3584 544.558 70.3525 544.638 70.3525C545.087 70.3525 545.522 70.5294 545.845 70.8501L545.845 70.8502L565.056 89.9451L565.586 90.4722L566.115 89.9435L573.945 82.1135L574.474 81.5848L573.947 81.0545L554.852 61.8434Z" fill="#DCE3DF" stroke="#030000" stroke-width="1.5"/>
<path d="M93.8819 209.012L93.8609 209.16C93.8184 209.154 93.7759 209.151 93.7343 209.151C93.5046 209.151 93.2819 209.241 93.1167 209.406L93.1167 209.406L85.112 217.362L85.006 217.467L84.9002 217.362L81.6377 214.099L81.532 213.993L81.6374 213.887L89.5937 205.883L89.5937 205.883C89.7879 205.687 89.879 205.412 89.8393 205.139C89.7995 204.866 89.6337 204.628 89.3919 204.496C89.3919 204.496 89.3919 204.496 89.3918 204.496L82.5105 200.742L82.2086 200.577L82.5347 200.468L106.299 192.51L106.585 192.414L106.489 192.7L98.5311 216.464L98.4219 216.791L98.2572 216.489L94.5033 209.607C94.5032 209.607 94.5032 209.607 94.5032 209.607C94.3712 209.366 94.1331 209.2 93.8603 209.16L93.8819 209.012ZM93.8819 209.012C93.8328 209.005 93.7834 209.001 93.7343 209.001C93.4653 209.001 93.2044 209.107 93.011 209.299L85.0063 217.255L94.6349 209.536C94.4803 209.252 94.2014 209.058 93.8819 209.012ZM107.696 190.195L107.696 190.195L79.7477 199.554C79.7477 199.554 79.7477 199.554 79.7477 199.554C79.4221 199.663 79.1907 199.953 79.1548 200.293L79.1534 200.308C79.1228 200.655 79.3007 200.987 79.6067 201.154L79.6068 201.154L87.3531 205.38L87.5285 205.475L87.3877 205.617L79.674 213.378C79.3336 213.721 79.3345 214.274 79.6758 214.615L84.3849 219.324C84.3849 219.324 84.385 219.324 84.385 219.324C84.7266 219.665 85.2797 219.666 85.6219 219.326L85.6219 219.326L93.3829 211.612L93.5246 211.472L93.6203 211.647L97.8462 219.394L97.8462 219.394C98.0004 219.677 98.2963 219.85 98.6148 219.85C98.6399 219.85 98.6657 219.849 98.6926 219.847C99.0396 219.816 99.3351 219.582 99.4458 219.252L108.805 191.304C108.805 191.304 108.805 191.304 108.805 191.304C108.91 190.989 108.828 190.642 108.594 190.407C108.358 190.172 108.011 190.09 107.696 190.195Z" fill="#DCE3DF" stroke="#030000" stroke-width="0.3"/>
<defs>
<clipPath id="clip0_879_1253">
<rect width="135" height="345" fill="white" transform="translate(146 195) rotate(-90)"/>
</clipPath>
</defs>
</svg>
