<svg width="636" height="255" viewBox="0 0 636 255" fill="none" xmlns="http://www.w3.org/2000/svg">
<g clip-path="url(#clip0_879_1264)">
<path d="M83.4532 271.298L83.4532 182.828L86.157 182.828L86.157 192.178C86.157 209.441 90.3628 211.599 104.783 211.599L532.923 211.599L532.923 113.059L104.783 113.059C90.3628 113.059 86.157 114.857 86.157 132.12L86.157 141.83L83.4532 141.83L83.4532 53.0001L86.157 53.0001L86.157 65.9469C86.157 83.2093 90.3628 85.0075 104.783 85.0075L517 85.0074C531.42 85.0074 535.626 83.2092 535.626 65.9468L535.626 53L538.33 53L538.33 271.298L535.626 271.298L535.626 258.711C535.626 241.448 531.42 239.65 517 239.65L104.783 239.65C90.3628 239.65 86.157 241.448 86.157 258.711L86.157 271.298L83.4532 271.298Z" fill="#DCE3DF"/>
<path d="M83.4527 86L83.4527 -2.46991L86.1564 -2.46991L86.1564 6.88057C86.1564 24.143 90.3623 26.3008 104.782 26.3008L532.921 26.3008L532.921 -72.239L104.782 -72.2389C90.3622 -72.2389 86.1564 -70.4407 86.1564 -53.1783L86.1564 -43.4682L83.4527 -43.4682L83.4526 -132.298L86.1564 -132.298L86.1564 -119.351C86.1564 -102.089 90.3622 -100.29 104.782 -100.29L516.998 -100.29C531.419 -100.29 535.624 -102.089 535.624 -119.351L535.624 -132.298L538.328 -132.298L538.328 86L535.624 86L535.624 73.4128C535.624 56.1504 531.419 54.3522 516.998 54.3522L104.782 54.3522C90.3623 54.3522 86.1564 56.1504 86.1564 73.4129L86.1564 86L83.4527 86Z" fill="#DCE3DF"/>
</g>
<g clip-path="url(#clip1_879_1264)">
<path d="M83.4532 379.298L83.4532 290.828L86.157 290.828L86.157 300.178C86.157 317.441 90.3628 319.599 104.783 319.599L532.923 319.599L532.923 221.059L104.783 221.059C90.3628 221.059 86.157 222.857 86.157 240.12L86.157 249.83L83.4532 249.83L83.4532 161L86.157 161L86.157 173.947C86.157 191.209 90.3628 193.007 104.783 193.007L517 193.007C531.42 193.007 535.626 191.209 535.626 173.947L535.626 161L538.33 161L538.33 379.298L535.626 379.298L535.626 366.711C535.626 349.448 531.42 347.65 517 347.65L104.783 347.65C90.3628 347.65 86.157 349.448 86.157 366.711L86.157 379.298L83.4532 379.298Z" fill="#DCE3DF"/>
<path d="M83.4527 194L83.4527 105.53L86.1564 105.53L86.1564 114.881C86.1564 132.143 90.3623 134.301 104.782 134.301L532.921 134.301L532.921 35.761L104.782 35.7611C90.3622 35.7611 86.1564 37.5593 86.1564 54.8217L86.1564 64.5318L83.4527 64.5318L83.4526 -24.2978L86.1564 -24.2978L86.1564 -11.351C86.1564 5.91146 90.3622 7.70962 104.782 7.70962L516.998 7.7096C531.419 7.7096 535.624 5.91143 535.624 -11.351L535.624 -24.2978L538.328 -24.2978L538.328 194L535.624 194L535.624 181.413C535.624 164.15 531.419 162.352 516.998 162.352L104.782 162.352C90.3623 162.352 86.1564 164.15 86.1564 181.413L86.1564 194L83.4527 194Z" fill="#DCE3DF"/>
</g>
<path d="M585.299 87.2936H598V85H584.215L582.5 87.1015L580.785 85H567V87.2936H579.702L581.358 89.3214V119.853H571.929V122.146H581.358V152.68L579.702 154.705H567V157H580.785L582.5 154.896L584.215 157H598V154.705H585.299L583.643 152.678V122.146H593.071V119.853H583.643V89.3211L585.299 87.2936Z" fill="#DCE3DF"/>
<defs>
<clipPath id="clip0_879_1264">
<rect width="86" height="473" fill="white" transform="translate(83 113) rotate(-90)"/>
</clipPath>
<clipPath id="clip1_879_1264">
<rect width="86" height="473" fill="white" transform="translate(83 221) rotate(-90)"/>
</clipPath>
</defs>
</svg>
