<svg width="636" height="255" viewBox="0 0 636 255" fill="none" xmlns="http://www.w3.org/2000/svg">
<g clip-path="url(#clip0_879_1280)">
<path d="M158.456 389.298L158.456 300.828L161.159 300.828L161.159 310.178C161.159 327.441 165.365 329.599 179.785 329.599L497.425 329.599L497.424 231.059L179.785 231.059C165.365 231.059 161.159 232.857 161.159 250.12L161.159 259.83L158.456 259.83L158.456 171L161.159 171L161.159 183.947C161.159 201.209 165.365 203.008 179.785 203.008L481.502 203.007C495.922 203.007 500.128 201.209 500.128 183.947L500.128 171L502.832 171L502.832 389.298L500.128 389.298L500.128 376.711C500.128 359.448 495.922 357.65 481.502 357.65L179.785 357.65C165.365 357.65 161.159 359.448 161.159 376.711L161.159 389.298L158.456 389.298Z" fill="#DCE3DF"/>
<path d="M158.454 82.2979L158.454 -6.17207L161.157 -6.17207L161.157 3.1784C161.157 20.4408 165.363 22.5986 179.783 22.5986L497.423 22.5986L497.423 -75.9411L179.783 -75.9411C165.363 -75.9411 161.157 -74.1429 161.157 -56.8805L161.157 -47.1704L158.454 -47.1704L158.454 -136L161.157 -136L161.157 -123.053C161.157 -105.791 165.363 -103.993 179.783 -103.993L481.5 -103.993C495.92 -103.993 500.126 -105.791 500.126 -123.053L500.126 -136L502.83 -136L502.83 82.2979L500.126 82.2979L500.126 69.7107C500.126 52.4482 495.92 50.6501 481.5 50.6501L179.783 50.6501C165.363 50.6501 161.157 52.4483 161.157 69.7107L161.157 82.2979L158.454 82.2979Z" fill="#DCE3DF"/>
</g>
<path d="M330.5 107.475C320.045 107.475 313 116.409 313 124.737C313 133.065 320.045 142 330.5 142C340.955 142 348 133.065 348 124.737H345.764C345.764 132.018 339.613 139.794 330.5 139.794C321.386 139.794 315.237 132.073 315.237 124.792C315.237 117.512 321.387 109.736 330.5 109.736C335.7 109.736 339.893 112.493 342.353 115.306L332.178 115.086L332.122 117.292L345.82 117.512L345.596 104L343.36 104.055L343.528 113.32C340.62 110.177 336.147 107.474 330.501 107.474L330.5 107.475Z" fill="#DCE3DF"/>
<path d="M580.692 99.3831L580.693 99.3901L580.694 99.3972C581.071 101.978 580.618 104.359 579.331 106.588L578.765 107.569C577.665 109.473 576.119 110.815 574.092 111.629C572.053 112.411 569.153 112.773 565.31 112.627L565.31 112.627L565.302 112.626C562.78 112.548 560.756 112.603 559.264 112.81C557.796 112.972 556.511 113.352 555.497 114.032C554.515 114.662 553.699 115.615 553.016 116.798L552.509 117.677L548.589 115.414L549.096 114.535C550.588 111.952 552.176 110.359 553.806 109.571C555.553 108.742 558.167 108.331 561.769 108.465C565.461 108.602 568.242 108.469 569.971 107.983C571.861 107.452 573.327 106.356 574.283 104.701L574.646 104.07C576.14 101.483 576.129 98.7573 574.686 96.0586C573.343 93.3907 570.741 91.0322 567.089 88.9238C563.223 86.692 559.61 85.6333 556.299 85.9508C552.921 86.2747 550.322 87.9907 548.591 90.9884L548.367 91.3769L543.969 88.8374L544.193 88.449C546.635 84.2189 550.024 81.8439 554.406 81.1851C558.833 80.5197 563.79 81.687 569.329 84.8853C572.629 86.7903 575.251 89.0249 577.225 91.5775C579.2 94.1323 580.335 96.7319 580.692 99.3831ZM543.503 123.459L543.505 123.458C544.443 123.223 545.366 123.352 546.34 123.914C547.314 124.476 547.851 125.19 548.075 126.068L548.079 126.086L548.085 126.104C548.318 126.917 548.217 127.795 547.627 128.817C547.042 129.83 546.315 130.396 545.448 130.644C544.607 130.848 543.724 130.724 542.737 130.154C541.758 129.589 541.173 128.87 540.885 127.995C540.673 127.125 540.801 126.218 541.382 125.212C541.972 124.19 542.682 123.663 543.503 123.459Z" fill="#DCE3DF" stroke="black" stroke-width="2.5"/>
<path d="M96.2535 135.872L96.2601 135.875L96.2667 135.878C98.6903 136.842 100.526 138.425 101.813 140.654L102.379 141.634C103.478 143.538 103.868 145.549 103.559 147.712C103.217 149.869 102.08 152.56 100.032 155.815L100.032 155.815L100.027 155.823C98.6987 157.967 97.7343 159.748 97.1679 161.143C96.5736 162.495 96.2609 163.798 96.3423 165.017C96.3965 166.182 96.8147 167.365 97.4976 168.548L98.005 169.427L94.0851 171.69L93.5777 170.811C92.0863 168.228 91.5014 166.056 91.6339 164.25C91.7888 162.323 92.7398 159.854 94.6568 156.801C96.6218 153.673 97.8969 151.198 98.3409 149.457C98.8258 147.555 98.6094 145.737 97.6538 144.082L97.2899 143.452C95.7962 140.865 93.43 139.511 90.3713 139.412C87.3893 139.241 84.0458 140.315 80.3938 142.424C76.5284 144.655 73.805 147.255 72.4243 150.281C71.016 153.368 71.2025 156.477 72.9332 159.475L73.1575 159.864L68.759 162.403L68.5347 162.015C66.0925 157.785 65.7302 153.662 67.3508 149.538C68.9876 145.372 72.477 141.662 78.0166 138.464C81.3162 136.559 84.5625 135.406 87.7601 134.972C90.9605 134.539 93.7792 134.856 96.2535 135.872ZM98.509 180.117L98.5096 180.115C98.7752 179.185 99.348 178.45 100.322 177.887C101.296 177.325 102.183 177.217 103.055 177.462L103.073 177.467L103.091 177.472C103.911 177.676 104.622 178.203 105.211 179.225C105.796 180.238 105.923 181.15 105.704 182.025C105.461 182.856 104.911 183.558 103.925 184.128C102.945 184.693 102.031 184.84 101.129 184.652C100.269 184.401 99.5479 183.836 98.9669 182.83C98.3771 181.808 98.2754 180.93 98.509 180.117Z" fill="#DCE3DF" stroke="black" stroke-width="2.5"/>
<defs>
<clipPath id="clip0_879_1280">
<rect width="255" height="345" fill="white" transform="translate(158 255) rotate(-90)"/>
</clipPath>
</defs>
</svg>
