<svg width="636" height="255" viewBox="0 0 636 255" fill="none" xmlns="http://www.w3.org/2000/svg">
<g clip-path="url(#clip0_879_1291)">
<g clip-path="url(#clip1_879_1291)">
<path d="M-3.5459 201L-3.54591 112.53L-0.842175 112.53L-0.842173 121.881C-0.842171 139.143 3.36366 141.301 17.7837 141.301L633.423 141.301L633.423 42.761L17.7837 42.7611C3.36365 42.7611 -0.842184 44.5593 -0.842181 61.8217L-0.84218 71.5318L-3.54592 71.5318L-3.54593 -17.2978L-0.842192 -17.2978L-0.84219 -4.35098C-0.842188 12.9115 3.36364 14.7096 17.7837 14.7096L617.5 14.7096C631.92 14.7096 636.126 12.9114 636.126 -4.35103L636.126 -17.2978L638.83 -17.2978L638.83 201L636.126 201L636.126 188.413C636.126 171.15 631.92 169.352 617.5 169.352L17.7837 169.352C3.36366 169.352 -0.842167 171.15 -0.842165 188.413L-0.842163 201L-3.5459 201Z" fill="#DCE3DF"/>
</g>
<g clip-path="url(#clip2_879_1291)">
<path d="M24.4524 414.298L24.4524 325.828L27.1561 325.828L27.1561 335.178C27.1561 352.441 31.3619 354.599 45.782 354.599L301.423 354.599L301.423 256.059L45.782 256.059C31.3619 256.059 27.1561 257.857 27.1561 275.12L27.1561 284.83L24.4523 284.83L24.4523 196L27.1561 196L27.1561 208.947C27.1561 226.209 31.3619 228.007 45.782 228.007L285.5 228.007C299.92 228.007 304.126 226.209 304.126 208.947L304.126 196L306.83 196L306.83 414.298L304.126 414.298L304.126 401.711C304.126 384.448 299.92 382.65 285.5 382.65L45.782 382.65C31.362 382.65 27.1561 384.448 27.1561 401.711L27.1561 414.298L24.4524 414.298Z" fill="#DCE3DF"/>
<path d="M24.4524 229L24.4524 140.53L27.1562 140.53L27.1562 149.881C27.1562 167.143 31.3623 169.301 45.7824 169.301L301.423 169.301L301.423 70.761L45.7824 70.7611C31.3623 70.7611 27.1562 72.5593 27.1562 89.8217L27.1562 99.5318L24.4524 99.5318L24.4524 10.7022L27.1562 10.7022L27.1562 23.649C27.1562 40.9115 31.3623 42.7096 45.7824 42.7096L285.5 42.7096C299.92 42.7096 304.126 40.9114 304.126 23.649L304.126 10.7022L306.83 10.7022L306.83 229L304.126 229L304.126 216.413C304.126 199.15 299.92 197.352 285.5 197.352L45.7824 197.352C31.3624 197.352 27.1562 199.15 27.1562 216.413L27.1562 229L24.4524 229Z" fill="#DCE3DF"/>
</g>
<g clip-path="url(#clip3_879_1291)">
<path d="M24.4524 414.298L24.4524 325.828L27.1561 325.828L27.1561 335.178C27.1561 352.441 31.3619 354.599 45.782 354.599L301.423 354.599L301.423 256.059L45.782 256.059C31.3619 256.059 27.1561 257.857 27.1561 275.12L27.1561 284.83L24.4523 284.83L24.4523 196L27.1561 196L27.1561 208.947C27.1561 226.209 31.3619 228.007 45.782 228.007L285.5 228.007C299.92 228.007 304.126 226.209 304.126 208.947L304.126 196L306.83 196L306.83 414.298L304.126 414.298L304.126 401.711C304.126 384.448 299.92 382.65 285.5 382.65L45.782 382.65C31.362 382.65 27.1561 384.448 27.1561 401.711L27.1561 414.298L24.4524 414.298Z" fill="#DCE3DF"/>
<path d="M24.4524 229L24.4524 140.53L27.1562 140.53L27.1562 149.881C27.1562 167.143 31.3623 169.301 45.7824 169.301L301.423 169.301L301.423 70.761L45.7824 70.7611C31.3623 70.7611 27.1562 72.5593 27.1562 89.8217L27.1562 99.5318L24.4524 99.5318L24.4524 10.7022L27.1562 10.7022L27.1562 23.649C27.1562 40.9115 31.3623 42.7096 45.7824 42.7096L285.5 42.7096C299.92 42.7096 304.126 40.9114 304.126 23.649L304.126 10.7022L306.83 10.7022L306.83 229L304.126 229L304.126 216.413C304.126 199.15 299.92 197.352 285.5 197.352L45.7824 197.352C31.3624 197.352 27.1562 199.15 27.1562 216.413L27.1562 229L24.4524 229Z" fill="#DCE3DF"/>
<path d="M275 215.836L276.11 217L282.703 210.136L283.499 209.428L284.297 210.136L290.89 217L292 215.836L283.5 207L275 215.836Z" fill="#DCE3DF"/>
</g>
<path d="M579 215.836L580.11 217L586.703 210.136L587.499 209.428L588.297 210.136L594.89 217L596 215.836L587.5 207L579 215.836Z" fill="#DCE3DF"/>
<g clip-path="url(#clip4_879_1291)">
<path d="M329.452 414.298L329.452 325.828L332.156 325.828L332.156 335.178C332.156 352.441 336.362 354.599 350.782 354.599L606.423 354.599L606.423 256.059L350.782 256.059C336.362 256.059 332.156 257.857 332.156 275.12L332.156 284.83L329.452 284.83L329.452 196L332.156 196L332.156 208.947C332.156 226.209 336.362 228.007 350.782 228.007L590.5 228.007C604.92 228.007 609.126 226.209 609.126 208.947L609.126 196L611.83 196L611.83 414.298L609.126 414.298L609.126 401.711C609.126 384.448 604.92 382.65 590.5 382.65L350.782 382.65C336.362 382.65 332.156 384.448 332.156 401.711L332.156 414.298L329.452 414.298Z" fill="#DCE3DF"/>
<path d="M329.452 229L329.452 140.53L332.156 140.53L332.156 149.881C332.156 167.143 336.362 169.301 350.782 169.301L606.423 169.301L606.423 70.761L350.782 70.7611C336.362 70.7611 332.156 72.5593 332.156 89.8217L332.156 99.5318L329.452 99.5318L329.452 10.7022L332.156 10.7022L332.156 23.649C332.156 40.9115 336.362 42.7096 350.782 42.7096L590.5 42.7096C604.92 42.7096 609.126 40.9114 609.126 23.649L609.126 10.7022L611.83 10.7022L611.83 229L609.126 229L609.126 216.413C609.126 199.15 604.92 197.352 590.5 197.352L350.782 197.352C336.362 197.352 332.156 199.15 332.156 216.413L332.156 229L329.452 229Z" fill="#DCE3DF"/>
</g>
<path d="M316.95 79.7935L316.95 79.7936C317.354 80.1989 318.01 80.1968 318.411 79.7934L318.412 79.7933L331.716 66.3972L331.856 66.2559L331.715 66.1149L330.538 64.9367L330.397 64.7951L330.255 64.9367L318.947 76.2559L318.947 76.2559C318.878 76.3252 318.823 76.3599 318.786 76.3745C318.765 76.3826 318.754 76.3834 318.75 76.3832C318.746 76.3801 318.738 76.3713 318.729 76.3495C318.713 76.3121 318.699 76.2482 318.699 76.1514V44V43.8H318.499H316.834H316.634V44V76.1514C316.634 76.2503 316.62 76.3157 316.604 76.354C316.595 76.374 316.588 76.3832 316.584 76.3868C316.58 76.3867 316.569 76.3853 316.55 76.3779C316.512 76.3626 316.456 76.3269 316.385 76.2559L316.385 76.2559L305.077 64.9367L304.936 64.7951L304.794 64.9367L303.617 66.1149L303.476 66.256L303.617 66.3974L316.95 79.7935ZM316.588 76.3866C316.588 76.3866 316.587 76.3867 316.587 76.3867L316.588 76.3866ZM334.333 82.2382H334.533V82.0382V80.3716V80.1716H334.333H301H300.8V80.3716V82.0382V82.2382H301H334.333Z" fill="#DCE3DF" stroke="#DCE3DF" stroke-width="0.4"/>
</g>
<defs>
<clipPath id="clip0_879_1291">
<rect width="636" height="255" rx="20" fill="white"/>
</clipPath>
<clipPath id="clip1_879_1291">
<rect width="86" height="640" fill="white" transform="translate(-4 228) rotate(-90)"/>
</clipPath>
<clipPath id="clip2_879_1291">
<rect x="24" y="233" width="42" height="283" rx="14" transform="rotate(-90 24 233)" fill="white"/>
</clipPath>
<clipPath id="clip3_879_1291">
<rect x="24" y="233" width="42" height="283" rx="14" transform="rotate(-90 24 233)" fill="white"/>
</clipPath>
<clipPath id="clip4_879_1291">
<rect x="329" y="233" width="42" height="283" rx="14" transform="rotate(-90 329 233)" fill="white"/>
</clipPath>
</defs>
</svg>
