<svg width="636" height="255" viewBox="0 0 636 255" fill="none" xmlns="http://www.w3.org/2000/svg">
<g clip-path="url(#clip0_879_1320)">
<g clip-path="url(#clip1_879_1320)">
<path d="M163 257L84.7826 257L84.7826 254.943L93.0494 254.943C108.311 254.943 110.219 251.743 110.219 240.773L110.219 -0.885995L23.0988 -0.88598L23.0988 240.773C23.0988 251.743 24.6886 254.943 39.9506 254.943L48.5354 254.943L48.5354 257L-30 257L-30 254.943L-18.5536 254.943C-3.2916 254.943 -1.70181 251.743 -1.70182 240.773L-1.70186 11.2275C-1.70186 0.256801 -3.29164 -2.94298 -18.5536 -2.94298L-30 -2.94298L-30 -4.99998L163 -2.00002L163 0.0569901L151.871 0.0569921C136.61 0.0569948 135.02 3.25678 135.02 14.2275L135.02 240.772C135.02 251.743 136.61 254.943 151.872 254.943L163 254.943L163 257Z" fill="#DCE3DF"/>
</g>
<g clip-path="url(#clip2_879_1320)">
<path d="M199.453 271.298L199.453 182.828L202.157 182.828L202.157 192.178C202.157 209.441 206.363 211.599 220.783 211.599L648.923 211.599L648.923 113.059L220.783 113.059C206.363 113.059 202.157 114.857 202.157 132.12L202.157 141.83L199.453 141.83L199.453 61.0001L202.157 61.0001L202.157 73.9469C202.157 91.2093 206.363 93.0075 220.783 93.0075L633 93.0074C647.42 93.0074 651.626 91.2092 651.626 73.9468L651.626 61L654.33 61L654.33 271.298L651.626 271.298L651.626 258.711C651.626 241.448 647.42 239.65 633 239.65L220.783 239.65C206.363 239.65 202.157 241.448 202.157 258.711L202.157 271.298L199.453 271.298Z" fill="#DCE3DF"/>
<path d="M199.453 77L199.453 -2.46991L202.156 -2.46991L202.156 6.88057C202.156 24.143 206.362 26.3008 220.782 26.3008L648.921 26.3008L648.921 -72.239L220.782 -72.2389C206.362 -72.2389 202.156 -70.4407 202.156 -53.1783L202.156 -43.4682L199.453 -43.4682L199.453 -132.298L202.156 -132.298L202.156 -119.351C202.156 -102.089 206.362 -100.29 220.782 -100.29L632.998 -100.29C647.419 -100.29 651.624 -102.089 651.624 -119.351L651.624 -132.298L654.328 -132.298L654.328 77L651.624 77L651.624 64.4128C651.624 47.1504 647.419 45.3522 632.998 45.3522L220.782 45.3522C206.362 45.3522 202.156 47.1504 202.156 64.4129L202.156 77L199.453 77Z" fill="#DCE3DF"/>
</g>
<g clip-path="url(#clip3_879_1320)">
<path d="M505.453 271.298L505.453 182.828L508.157 182.828L508.157 192.178C508.157 209.441 512.363 211.599 526.783 211.599L954.923 211.599L954.923 113.059L526.783 113.059C512.363 113.059 508.157 114.857 508.157 132.12L508.157 141.83L505.453 141.83L505.453 61.0001L508.157 61.0001L508.157 73.9469C508.157 91.2093 512.363 93.0075 526.783 93.0075L939 93.0074C953.42 93.0074 957.626 91.2093 957.626 73.9468L957.626 61L960.33 61L960.33 271.298L957.626 271.298L957.626 258.711C957.626 241.448 953.42 239.65 939 239.65L526.783 239.65C512.363 239.65 508.157 241.448 508.157 258.711L508.157 271.298L505.453 271.298Z" fill="#DCE3DF"/>
<path d="M505.453 77L505.453 -2.46994L508.156 -2.46994L508.156 6.88054C508.156 24.143 512.362 26.3008 526.782 26.3008L954.921 26.3007L954.921 -72.239L526.782 -72.239C512.362 -72.239 508.156 -70.4408 508.156 -53.1783L508.156 -43.4682L505.453 -43.4682L505.453 -132.298L508.156 -132.298L508.156 -119.351C508.156 -102.089 512.362 -100.29 526.782 -100.29L938.998 -100.29C953.419 -100.29 957.624 -102.089 957.624 -119.351L957.624 -132.298L960.328 -132.298L960.328 77L957.624 77L957.624 64.4128C957.624 47.1504 953.419 45.3522 938.998 45.3522L526.782 45.3522C512.362 45.3522 508.156 47.1504 508.156 64.4128L508.156 77L505.453 77Z" fill="#DCE3DF"/>
</g>
<g clip-path="url(#clip4_879_1320)">
<path d="M199.453 379.298L199.453 290.828L202.157 290.828L202.157 300.178C202.157 317.441 206.363 319.599 220.783 319.599L648.923 319.599L648.923 221.059L220.783 221.059C206.363 221.059 202.157 222.857 202.157 240.12L202.157 249.83L199.453 249.83L199.453 168L202.157 168L202.157 180.947C202.157 198.209 206.363 200.007 220.783 200.007L633 200.007C647.42 200.007 651.626 198.209 651.626 180.947L651.626 168L654.33 168L654.33 379.298L651.626 379.298L651.626 366.711C651.626 349.448 647.42 347.65 633 347.65L220.783 347.65C206.363 347.65 202.157 349.448 202.157 366.711L202.157 379.298L199.453 379.298Z" fill="#DCE3DF"/>
<path d="M199.453 187L199.453 105.53L202.156 105.53L202.156 114.881C202.156 132.143 206.362 134.301 220.782 134.301L648.921 134.301L648.921 35.761L220.782 35.7611C206.362 35.7611 202.156 37.5593 202.156 54.8217L202.156 64.5318L199.453 64.5318L199.453 -24.2978L202.156 -24.2978L202.156 -11.351C202.156 5.91146 206.362 7.70962 220.782 7.70962L632.998 7.7096C647.419 7.7096 651.624 5.91143 651.624 -11.351L651.624 -24.2978L654.328 -24.2978L654.328 187L651.624 187L651.624 174.413C651.624 157.15 647.419 155.352 632.998 155.352L220.782 155.352C206.362 155.352 202.156 157.15 202.156 174.413L202.156 187L199.453 187Z" fill="#DCE3DF"/>
</g>
<g clip-path="url(#clip5_879_1320)">
<path d="M-82.5468 379.298L-82.5468 290.828L-79.843 290.828L-79.843 300.178C-79.843 317.441 -75.6372 319.599 -61.2172 319.599L366.923 319.599L366.923 221.059L-61.2172 221.059C-75.6372 221.059 -79.843 222.857 -79.843 240.12L-79.843 249.83L-82.5468 249.83L-82.5468 168L-79.843 168L-79.843 180.947C-79.843 198.209 -75.6372 200.007 -61.2172 200.007L351 200.007C365.42 200.007 369.626 198.209 369.626 180.947L369.626 168L372.33 168L372.33 379.298L369.626 379.298L369.626 366.711C369.626 349.448 365.42 347.65 351 347.65L-61.2172 347.65C-75.6372 347.65 -79.843 349.448 -79.843 366.711L-79.843 379.298L-82.5468 379.298Z" fill="#DCE3DF"/>
<path d="M-82.5473 187L-82.5473 105.53L-79.8436 105.53L-79.8436 114.881C-79.8436 132.143 -75.6377 134.301 -61.2177 134.301L366.921 134.301L366.921 35.761L-61.2177 35.761C-75.6378 35.761 -79.8436 37.5592 -79.8436 54.8217L-79.8436 64.5318L-82.5473 64.5318L-82.5474 -24.2978L-79.8436 -24.2978L-79.8436 -11.351C-79.8436 5.91143 -75.6378 7.70959 -61.2177 7.70959L350.998 7.70957C365.419 7.70957 369.624 5.9114 369.624 -11.351L369.624 -24.2979L372.328 -24.2979L372.328 187L369.624 187L369.624 174.413C369.624 157.15 365.419 155.352 350.998 155.352L-61.2177 155.352C-75.6377 155.352 -79.8436 157.15 -79.8436 174.413L-79.8436 187L-82.5473 187Z" fill="#DCE3DF"/>
</g>
</g>
<defs>
<clipPath id="clip0_879_1320">
<rect width="636" height="255" rx="20" fill="white"/>
</clipPath>
<clipPath id="clip1_879_1320">
<rect width="237" height="345" fill="white" transform="translate(348 300) rotate(180)"/>
</clipPath>
<clipPath id="clip2_879_1320">
<rect x="199" y="113" width="86" height="473" transform="rotate(-90 199 113)" fill="white"/>
</clipPath>
<clipPath id="clip3_879_1320">
<rect width="86" height="471" fill="white" transform="translate(507 113) rotate(-90)"/>
</clipPath>
<clipPath id="clip4_879_1320">
<rect width="86" height="473" fill="white" transform="translate(199 221) rotate(-90)"/>
</clipPath>
<clipPath id="clip5_879_1320">
<rect width="86" height="172" fill="white" transform="translate(199 221) rotate(-90)"/>
</clipPath>
</defs>
</svg>
