<svg width="636" height="255" viewBox="0 0 636 255" fill="none" xmlns="http://www.w3.org/2000/svg">
<path d="M264.262 221C322.2 221 361 182.2 361 123.868C361 65.8 322.2 27 264.262 27C205.8 27 167 65.8 167 123.868C167 182.2 205.8 221 264.262 221ZM265.049 216.249C216.024 216.249 189.808 182.464 189.808 119.117C189.808 62.3687 215.5 31.751 263.214 31.751C311.714 31.751 338.192 65.8 338.192 128.883C338.192 185.895 312.5 216.249 265.049 216.249Z" fill="#DCE3DF"/>
<path d="M82 140.235H94.3768L114.795 116.361H125.351L120.513 121.388L122.335 123.147L130 115.105L122.335 107L120.513 108.759L125.351 113.848H113.665L93.2462 137.722H82.0002L82 140.235Z" fill="#DCE3DF"/>
<path d="M101.916 122.832L94.3768 113.848H82V116.361H93.1836L99.9685 124.466L101.916 122.832Z" fill="#DCE3DF"/>
<path d="M122.334 130.937L120.512 132.696L125.35 137.722H114.795L108.073 129.618L106.125 131.251L113.601 140.236H125.35L120.512 145.325L122.334 147.084L129.999 138.979L122.334 130.937Z" fill="#DCE3DF"/>
<path d="M517 140.235H529.377L549.795 116.361H560.351L555.513 121.388L557.335 123.147L565 115.105L557.335 107L555.513 108.759L560.351 113.848H548.665L528.246 137.722H517L517 140.235Z" fill="#DCE3DF"/>
<path d="M536.916 122.832L529.377 113.848H517V116.361H528.184L534.969 124.466L536.916 122.832Z" fill="#DCE3DF"/>
<path d="M557.334 130.937L555.512 132.696L560.35 137.722H549.795L543.073 129.618L541.125 131.251L548.601 140.236H560.35L555.512 145.325L557.334 147.084L564.999 138.979L557.334 130.937Z" fill="#DCE3DF"/>
<path d="M391.262 221C449.2 221 488 182.2 488 123.868C488 65.8 449.2 27 391.262 27C332.8 27 294 65.8 294 123.868C294 182.2 332.8 221 391.262 221ZM392.049 216.249C343.024 216.249 316.808 182.464 316.808 119.117C316.808 62.3687 342.5 31.751 390.214 31.751C438.714 31.751 465.192 65.8 465.192 128.883C465.192 185.895 439.5 216.249 392.049 216.249Z" fill="#DCE3DF"/>
</svg>
