<svg width="636" height="255" viewBox="0 0 636 255" fill="none" xmlns="http://www.w3.org/2000/svg">
<g clip-path="url(#clip0_879_1363)">
<g clip-path="url(#clip1_879_1363)">
<path d="M548.033 235.453H383.829V232.749H468.914C486.176 232.749 488.334 228.543 488.334 214.123V38.8607C488.334 31.1287 482.066 24.8606 474.334 24.8606H355.058V214.123V232.749H374.119H383.829V235.453H294.999V232.749H307.946H327.006V214.123V40.7828V22.1569H307.946H294.999V19.4531H548.033V22.1569H535.446C518.184 22.1569 516.385 26.3627 516.385 40.7828V214.123C516.385 228.543 518.184 232.749 535.446 232.749H548.033V235.453Z" fill="#DCE3DF"/>
<path d="M82 235.453H246.205V232.749H161.119C143.857 232.749 141.699 228.543 141.699 214.123V38.8607C141.699 31.1287 147.967 24.8606 155.699 24.8606H274.975V214.123V232.749H255.915H246.205V235.453H335.034V232.749H322.087H303.027V214.123V40.7828V24.1569H322.087H335.034V19.4531H82V22.1569H94.5872C111.85 22.1569 113.648 26.3627 113.648 40.7828V214.123C113.648 228.543 111.85 232.749 94.5872 232.749H82V235.453Z" fill="#DCE3DF"/>
<rect x="175" y="167" width="88" height="67" transform="rotate(-90 175 167)" fill="#DCE3DF"/>
</g>
<g clip-path="url(#clip2_879_1363)">
<path d="M720.033 235.453H555.829V232.749H640.914C658.176 232.749 660.334 228.543 660.334 214.123V38.8607C660.334 31.1287 654.066 24.8606 646.334 24.8606H527.058V214.123V232.749H546.119H555.829V235.453H466.999V232.749H479.946H499.006V214.123V40.7828V22.1569H479.946H466.999V19.4531H720.033V22.1569H707.446C690.184 22.1569 688.385 26.3627 688.385 40.7828V214.123C688.385 228.543 690.184 232.749 707.446 232.749H720.033V235.453Z" fill="#DCE3DF"/>
<path d="M254 235.453H418.205V232.749H333.119C315.857 232.749 313.699 228.543 313.699 214.123V38.8607C313.699 31.1287 319.967 24.8606 327.699 24.8606H446.975V214.123V232.749H427.915H418.205V235.453H507.034V232.749H494.087H475.027V214.123V40.7828V24.1569H494.087H507.034V19.4531H254V22.1569H266.587C283.85 22.1569 285.648 26.3627 285.648 40.7828V214.123C285.648 228.543 283.85 232.749 266.587 232.749H254V235.453Z" fill="#DCE3DF"/>
<rect x="541" y="72" width="28" height="106" transform="rotate(-90 541 72)" fill="#DCE3DF"/>
<rect x="541" y="107" width="35" height="67" transform="rotate(-90 541 107)" fill="#DCE3DF"/>
</g>
<g clip-path="url(#clip3_879_1363)">
<path d="M632.033 235.453H467.829V232.749H552.914C570.176 232.749 572.334 228.543 572.334 214.123V38.8607C572.334 31.1287 566.066 24.8606 558.334 24.8606H439.058V214.123V232.749H458.119H467.829V235.453H378.999V232.749H391.946H411.006V214.123V40.7828V22.1569H391.946H378.999V19.4531H632.033V22.1569H619.446C602.184 22.1569 600.385 26.3627 600.385 40.7828V214.123C600.385 228.543 602.184 232.749 619.446 232.749H632.033V235.453Z" fill="#DCE3DF"/>
<path d="M166 235.453H330.205V232.749H245.119C227.857 232.749 225.699 228.543 225.699 214.123V38.8607C225.699 31.1287 231.967 24.8606 239.699 24.8606H358.975V214.123V232.749H339.915H330.205V235.453H419.034V232.749H406.087H387.027V214.123V40.7828V24.1569H406.087H419.034V19.4531H166V22.1569H178.587C195.85 22.1569 197.648 26.3627 197.648 40.7828V214.123C197.648 228.543 195.85 232.749 178.587 232.749H166V235.453Z" fill="#DCE3DF"/>
</g>
<line x1="330.75" y1="108" x2="330.75" y2="125" stroke="#DCE3DF" stroke-width="1.5"/>
<line x1="322" y1="116.25" x2="339.5" y2="116.25" stroke="#DCE3DF" stroke-width="1.5"/>
<line x1="466.75" y1="108" x2="466.75" y2="125" stroke="#DCE3DF" stroke-width="1.5"/>
<line x1="458" y1="116.25" x2="475.5" y2="116.25" stroke="#DCE3DF" stroke-width="1.5"/>
</g>
<defs>
<clipPath id="clip0_879_1363">
<rect width="636" height="255" rx="20" fill="white"/>
</clipPath>
<clipPath id="clip1_879_1363">
<rect width="188" height="217" fill="white" transform="translate(114 19)"/>
</clipPath>
<clipPath id="clip2_879_1363">
<rect width="221" height="217" fill="white" transform="translate(499 19)"/>
</clipPath>
<clipPath id="clip3_879_1363">
<rect width="79" height="217" fill="white" transform="translate(359 19)"/>
</clipPath>
</defs>
</svg>
