<svg width="636" height="255" viewBox="0 0 636 255" fill="none" xmlns="http://www.w3.org/2000/svg">
<g clip-path="url(#clip0_879_1420)">
<path d="M562 126.755C562 177.606 539.681 219.766 500.329 249.49C492.28 255.569 483.498 261.141 474.028 266.16C474.764 265.527 475.493 264.887 476.214 264.24C509.304 234.557 525.803 190.992 525.803 136.061C525.803 75.7086 508.951 27.7217 475.221 -5.12352C469.512 -10.6838 463.36 -15.7687 456.782 -20.3796C473.02 -13.488 487.595 -5.15006 500.336 4.45456C539.694 34.1251 562 76.1642 562 126.755ZM190.624 259.314C195.927 264.467 201.613 269.209 207.673 273.54C192.11 266.799 178.109 258.726 165.818 249.479C126.315 219.756 104 177.602 104 126.755C104 76.1679 126.302 34.135 165.811 4.46572C173.935 -1.63548 182.807 -7.22586 192.384 -12.2593C191.536 -11.5349 190.697 -10.8009 189.868 -10.0575C156.704 19.6801 140.197 63.2404 140.197 117.939C140.197 178.5 156.868 226.509 190.624 259.314Z" fill="#DCE3DF" stroke="black" stroke-width="20"/>
<path d="M492 121.761C492 174.069 475.945 217.358 448.16 247.538C420.396 277.696 380.708 295 332.939 295C284.723 295 244.816 277.691 216.946 247.534C189.055 217.355 173 174.069 173 121.761C173 69.6954 189.053 26.5286 216.944 -3.59164C244.815 -33.6907 284.723 -51 332.939 -51C380.709 -51 420.398 -33.6961 448.162 -3.59588C475.947 26.5259 492 69.6952 492 121.761ZM205.209 113.14C205.209 170.916 216.235 215.696 237.995 246.108C259.871 276.681 292.345 292.38 334.257 292.38C374.762 292.38 406.344 278.306 427.705 250.75C448.968 223.32 459.791 182.931 459.791 130.86C459.791 73.3153 448.652 28.5403 426.897 -1.9257C405.03 -32.5477 372.672 -48.3796 331.182 -48.3796C290.454 -48.3796 258.765 -34.1839 237.351 -6.57042C216.033 20.9182 205.209 61.3053 205.209 113.14Z" fill="#DCE3DF" stroke="black" stroke-width="6"/>
<path d="M370.156 116.297C370.156 113.467 369.032 110.752 367.031 108.752C365.03 106.751 362.316 105.626 359.486 105.626H351.484V95.6676C351.484 94.96 351.202 94.282 350.702 93.7815C350.202 93.281 349.523 93 348.816 93H317.34C316.633 93 315.954 93.281 315.454 93.7815C314.954 94.282 314.672 94.9599 314.672 95.6676V105.626H306.67C303.841 105.626 301.126 106.751 299.125 108.752C297.124 110.752 296 113.467 296 116.297V136.57C296 139.399 297.124 142.113 299.125 144.114C301.126 146.115 303.84 147.24 306.67 147.24H313.783V159.332C313.783 160.04 314.064 160.718 314.565 161.218C315.065 161.719 315.743 162 316.451 162H349.706C350.414 162 351.092 161.719 351.592 161.218C352.093 160.718 352.374 160.04 352.374 159.332V147.24H359.487C362.316 147.24 365.031 146.115 367.032 144.114C369.033 142.113 370.157 139.399 370.157 136.57L370.156 116.297ZM320.007 98.3356H346.149V105.627L320.007 105.626V98.3356ZM319.118 156.754V134.525H347.037V156.665L319.118 156.754ZM364.821 136.57C364.821 137.984 364.258 139.342 363.258 140.342C362.257 141.342 360.9 141.904 359.486 141.904H352.372V134.524H356.196C357.148 134.524 358.029 134.016 358.506 133.191C358.982 132.365 358.982 131.349 358.506 130.523C358.029 129.698 357.148 129.19 356.196 129.19H309.959C309.006 129.19 308.126 129.698 307.649 130.523C307.173 131.349 307.173 132.365 307.649 133.191C308.126 134.016 309.006 134.524 309.959 134.524H313.782V141.904H306.669H306.669C305.255 141.904 303.898 141.342 302.897 140.342C301.897 139.342 301.334 137.984 301.334 136.57V116.297C301.334 114.881 301.897 113.525 302.897 112.524C303.898 111.523 305.255 110.961 306.669 110.961H359.486C360.901 110.961 362.258 111.523 363.258 112.524C364.259 113.525 364.821 114.881 364.821 116.297L364.821 136.57Z" fill="#DCE3DF"/>
<path fill-rule="evenodd" clip-rule="evenodd" d="M365.97 109.812C364.25 108.092 361.918 107.126 359.486 107.126H349.984V95.6676C349.984 95.359 349.861 95.0621 349.641 94.8419C349.422 94.6228 349.125 94.5 348.816 94.5H317.34C317.031 94.5 316.734 94.6227 316.515 94.8419C316.295 95.0621 316.172 95.359 316.172 95.6676V107.126H306.67C304.238 107.126 301.906 108.092 300.186 109.812C298.466 111.532 297.5 113.864 297.5 116.297V136.57C297.5 139.001 298.466 141.334 300.186 143.053C301.906 144.773 304.238 145.74 306.67 145.74H315.283V159.332C315.283 159.642 315.406 159.938 315.626 160.158C315.844 160.376 316.141 160.5 316.451 160.5H349.706C350.016 160.5 350.313 160.377 350.531 160.159C350.75 159.939 350.874 159.642 350.874 159.332V145.74H359.487C361.919 145.74 364.251 144.773 365.971 143.054C367.691 141.334 368.657 139.002 368.657 136.57L368.656 116.297C368.656 113.864 367.69 111.532 365.97 109.812ZM318.507 96.8356H347.649V107.127L318.507 107.126V96.8356ZM317.618 158.259V133.025H348.537V158.16L317.618 158.259ZM350.872 143.404V133.024H356.196C356.613 133.024 356.998 132.802 357.206 132.441C357.415 132.08 357.415 131.635 357.207 131.273C356.998 130.912 356.612 130.69 356.196 130.69H309.959C309.542 130.69 309.157 130.912 308.948 131.273C308.74 131.635 308.74 132.08 308.949 132.441C309.157 132.802 309.542 133.024 309.959 133.024H315.282V143.404H306.669C306.669 143.404 306.67 143.404 306.669 143.404C304.857 143.404 303.118 142.684 301.836 141.403C300.555 140.121 299.834 138.383 299.834 136.57V116.297C299.834 114.483 300.555 112.745 301.836 111.464C303.118 110.182 304.857 109.461 306.669 109.461H359.486C361.298 109.461 363.037 110.181 364.319 111.463C365.6 112.745 366.321 114.483 366.321 116.297L366.321 136.57C366.321 138.383 365.6 140.121 364.318 141.403L363.258 140.342C364.258 139.342 364.821 137.984 364.821 136.57L364.821 116.297C364.821 114.881 364.259 113.525 363.258 112.524C362.258 111.523 360.901 110.961 359.486 110.961H306.669C305.255 110.961 303.898 111.523 302.897 112.524C301.897 113.525 301.334 114.881 301.334 116.297V136.57C301.334 137.984 301.897 139.342 302.897 140.342C303.897 141.342 305.254 141.904 306.669 141.904C306.669 141.904 306.669 141.904 306.669 141.904H313.782V134.524H309.959C309.006 134.524 308.126 134.016 307.649 133.191C307.173 132.365 307.173 131.349 307.649 130.523C308.126 129.698 309.006 129.19 309.959 129.19H356.196C357.148 129.19 358.029 129.698 358.506 130.523C358.982 131.349 358.982 132.365 358.506 133.191C358.029 134.016 357.148 134.524 356.196 134.524H352.372V141.904H359.486C360.9 141.904 362.257 141.342 363.258 140.342L364.318 141.403C363.037 142.684 361.298 143.404 359.486 143.404H350.872ZM299.125 144.114C297.124 142.113 296 139.399 296 136.57V116.297C296 113.467 297.124 110.752 299.125 108.752C301.126 106.751 303.841 105.626 306.67 105.626H314.672V95.6676C314.672 94.9599 314.954 94.282 315.454 93.7815C315.954 93.281 316.633 93 317.34 93H348.816C349.523 93 350.202 93.281 350.702 93.7815C351.202 94.282 351.484 94.96 351.484 95.6676V105.626H359.486C362.316 105.626 365.03 106.751 367.031 108.752C369.032 110.752 370.156 113.467 370.156 116.297L370.157 136.57C370.157 139.399 369.033 142.113 367.032 144.114C365.031 146.115 362.316 147.24 359.487 147.24H352.374V159.332C352.374 160.04 352.093 160.718 351.592 161.218C351.092 161.719 350.414 162 349.706 162H316.451C315.743 162 315.065 161.719 314.565 161.218C314.064 160.718 313.783 160.04 313.783 159.332V147.24H306.67C303.84 147.24 301.126 146.115 299.125 144.114ZM346.149 105.627L320.007 105.626V98.3356H346.149V105.627ZM319.118 156.754V134.525H347.037V156.665L319.118 156.754Z" fill="black"/>
<path d="M357.445 115.535H347.664C346.979 115.535 346.346 115.9 346.003 116.494L357.445 115.535ZM357.445 115.535C358.13 115.535 358.763 115.9 359.105 116.494L359.105 116.494C359.448 117.087 359.448 117.818 359.105 118.411L359.105 118.411M357.445 115.535L359.105 118.411M359.105 118.411C358.763 119.004 358.13 119.37 357.445 119.37H347.664C346.979 119.37 346.346 119.004 346.003 118.411M359.105 118.411L346.003 118.411M346.003 118.411C345.661 117.818 345.661 117.087 346.003 116.494L346.003 118.411Z" fill="#DCE3DF" stroke="black" stroke-width="1.5"/>
<path d="M338.826 142.063L338.826 142.063C339.168 141.47 339.168 140.739 338.826 140.146L338.826 140.146C338.483 139.552 337.85 139.187 337.166 139.187H328.896C328.212 139.187 327.578 139.552 327.235 140.146L338.826 142.063ZM338.826 142.063C338.483 142.656 337.85 143.022 337.166 143.022H328.896M338.826 142.063L328.896 143.022M328.896 143.022C328.212 143.022 327.578 142.657 327.235 142.063L328.896 143.022ZM327.235 142.063C326.893 141.47 326.893 140.739 327.235 140.146L327.235 142.063Z" fill="#DCE3DF" stroke="black" stroke-width="1.5"/>
<path d="M324.571 149.038L324.572 149.038C324.914 148.444 325.547 148.079 326.232 148.079H339.925C340.61 148.079 341.243 148.444 341.586 149.038L341.586 149.038C341.929 149.631 341.929 150.362 341.586 150.954L341.586 150.955C341.243 151.548 340.61 151.914 339.925 151.914H326.232C325.547 151.914 324.914 151.548 324.572 150.955L324.571 150.954C324.229 150.362 324.229 149.631 324.571 149.038Z" fill="#DCE3DF" stroke="black" stroke-width="1.5"/>
</g>
<defs>
<clipPath id="clip0_879_1420">
<rect width="636" height="255" rx="20" fill="white"/>
</clipPath>
</defs>
</svg>
