<svg width="1340" height="737" viewBox="0 0 1340 737" fill="none" xmlns="http://www.w3.org/2000/svg">
<mask id="path-1-outside-1_763_133" maskUnits="userSpaceOnUse" x="-0.5" y="0" width="1341" height="737" fill="black">
<rect fill="white" x="-0.5" width="1341" height="737"/>
<path d="M1337.5 374.69C1337.5 269.244 1328.69 184.373 1311.07 120.077C1293.46 55.138 1270.31 22.9085 1241.5 22.9085C1221.68 22.9085 1204.82 43.2432 1191.06 84.3928C1189.77 88.8935 1188.76 95.3231 1188.03 103.682L1186.1 101.753C1186.47 95.3231 1186.74 86.0002 1186.93 73.7839L1187.48 3.3796H1185L1182.52 282.103L1187.48 283.068L1188.3 193.375C1189.04 150.939 1195 113.591 1206.2 83.3718C1217.21 53.1526 1229.69 31.9173 1243.63 31.9173C1266.2 31.9173 1283.46 72.5155 1295.38 127.167C1307.13 181.819 1313 255.099 1313 359.259C1313 474.349 1306.85 563.456 1294.56 624.537C1282.08 684.975 1264.09 731.53 1240.6 731.53C1227.21 731.53 1214.82 719.635 1203.44 695.845C1192.07 672.056 1184.08 622.552 1179.49 582.045L1174.81 588.796C1179.95 635.089 1188.58 670.452 1200.69 694.885C1212.62 719.317 1226.11 734 1241.16 734C1269.97 734 1293.27 698.743 1311.07 633.16C1328.69 567.578 1337.5 481.422 1337.5 374.69Z"/>
<path d="M1062.41 734C1093.06 734 1117.74 699.064 1136.46 634.125C1155.18 569.186 1164.54 483.35 1164.54 376.619C1164.54 270.53 1155.18 185.016 1136.46 120.077C1117.74 55.138 1093.06 22.6684 1062.41 22.6684C1031.95 22.6684 1007.45 55.138 988.912 120.077C970.194 185.016 960.835 270.53 960.835 376.619C960.835 483.35 970.194 569.186 988.912 634.125C1007.45 699.064 1031.95 734 1062.41 734ZM1061.58 730.509C1036.63 730.509 1017.63 703.183 1004.6 648.531C991.39 593.88 984.783 498.46 984.783 394.943C984.783 279.853 991.573 177.796 1005.15 117.357C1018.55 56.2758 1038 25.7351 1063.51 25.7351C1088.65 25.7351 1107.83 53.061 1121.04 107.713C1134.07 162.364 1140.59 255.742 1140.59 359.259C1140.59 474.349 1133.89 578.77 1120.49 639.851C1106.91 700.29 1087.28 730.509 1061.58 730.509Z"/>
<path d="M1241.43 22.9845H911.914V31.6645H933.11V33.5934C929.99 37.4512 927.145 52.2393 924.576 77.9577L861.264 622.552C859.796 634.768 859.062 646.341 859.062 657.271H855.483C855.483 646.341 854.566 633.482 852.73 618.694L791.07 91.4599C789.785 81.8155 789.143 72.814 789.143 64.4555C789.143 42.5948 793.639 31.6645 802.631 31.6645H826.304V22.9845H669.295V31.6645H769.599C773.636 31.6645 776.664 35.8437 778.683 44.2022C780.518 51.9178 782.812 67.6703 785.564 91.4599L858 733.731H873.101L946.047 91.4599C948.8 67.0274 951.186 50.9533 953.204 43.2378C955.04 35.5223 958.068 31.6645 962.288 31.6645H1241.43V22.9845Z"/>
<path d="M746.205 347.686C746.205 351.543 746.205 355.401 746.205 359.259C746.205 473.063 739.323 576.142 725.56 637.866C711.612 698.947 692.711 729.488 668.854 729.488C650.502 729.488 634.261 716.629 620.131 690.91C606 664.549 594.898 612.264 586.823 564.685L582.969 575.294C591.594 624.802 603.431 663.38 618.479 691.027C633.344 718.031 650.411 734 669.68 734C698.858 734 722.99 698.743 742.076 633.16C761.161 566.935 770.704 480.779 770.704 374.69C770.704 269.244 761.437 184.373 742.902 120.077C724.183 55.138 699.592 23.6894 669.129 23.6894C644.538 23.6894 623.709 49.9943 606.642 104.646C589.576 159.298 581.042 229.381 581.042 314.894V319.717C581.042 327.432 581.868 334.183 583.52 339.97C585.171 345.114 587.19 347.686 589.576 347.686H746.205ZM745.93 346.661L607.744 340.931C606.275 340.931 605.541 320.681 605.541 314.894C605.541 232.595 611.506 158.203 623.434 108.052C635.179 57.2578 650.778 31.8608 670.23 31.8608C693.72 31.8608 711.98 56.6148 725.009 106.123C737.855 155.631 744.828 252.145 745.93 346.661Z"/>
<path d="M572.528 733.684V725.004H562.894C556.287 725.004 552.25 722.432 550.782 717.289C549.13 711.502 548.304 697.035 548.304 673.889V82.78C548.304 59.6333 549.13 45.4882 550.782 40.3445C552.25 34.5578 556.287 31.6645 562.894 31.6645H669.528V22.9845H500.682C478.661 22.9845 460.952 42.5948 447.555 81.8155C434.159 121.036 427.46 180.194 427.46 244.49C427.46 302.357 432.966 350.257 443.977 388.192C454.987 426.127 468.935 447.666 485.818 452.81L491.323 453.774V459.561C478.11 464.705 467.925 486.887 460.768 526.107L447.005 602.298C435.076 667.88 426.084 700.671 420.028 700.671C417.275 700.671 414.614 697.135 412.045 690.063L405.989 671.738L404.613 678.489L410.669 696.814C418.927 721.246 426.543 733.463 433.516 733.463C436.82 733.463 440.031 730.891 443.151 725.747C446.087 721.246 449.023 713.531 451.959 702.6C454.712 691.67 457.006 682.026 458.841 673.667C460.676 664.666 462.97 652.449 465.723 637.018L484.992 532.858C490.13 505.211 494.535 485.922 498.205 474.992C501.875 464.062 506.555 458.596 512.244 458.596H515.547V442.201H502.885C486.185 442.201 473.431 425.484 464.622 392.05C455.813 357.973 451.409 308.786 451.409 244.49C451.409 180.837 455.813 124.894 464.622 91.4599C473.431 57.3829 486.185 40.3445 502.885 40.3445H531.513V41.3089C528.393 52.2393 526.833 68.9563 526.833 91.4599V673.889C526.833 697.035 526.007 711.502 524.356 717.289C522.704 722.432 518.575 725.004 511.969 725.004H496.003V733.684H572.528Z"/>
<path d="M340.795 22.9845H270.601V31.6645H282.713C289.32 31.6645 293.449 34.5578 295.1 40.3445C296.568 45.4882 297.302 59.6333 297.302 82.78V600.369C297.302 637.661 294.458 682.287 288.769 701.576C283.08 720.864 274.822 730.509 263.995 730.509C249.313 730.509 238.119 717.971 230.411 692.896C222.52 667.177 218.575 613.872 218.575 565.65V100.14C218.575 75.0644 219.676 57.383 221.878 47.0956C223.897 36.8082 228.026 31.6645 234.265 31.6645H244.45V22.9845H190.772V31.6645H197.929C204.169 31.6645 208.39 36.8082 210.592 47.0956C212.611 57.383 213.62 75.0644 213.62 100.14V565.65C213.62 619.658 217.933 660.808 226.558 689.098C235.183 717.388 247.662 734 263.995 734C280.511 734 293.816 716.424 303.909 686.205C313.819 655.343 318.773 615.158 318.773 565.65V82.78C318.773 59.6333 319.599 45.4882 321.251 40.3445C322.903 34.5578 327.032 31.6645 333.638 31.6645H340.795V22.9845Z"/>
<path d="M145.606 41.3089V46.1311C142.487 60.9192 140.927 80.851 140.927 105.927V436.414H125.512C108.078 436.414 94.8649 420.019 85.8727 387.228C76.697 353.794 72.1091 305.572 72.1091 242.561C72.1091 179.551 76.697 124.251 85.8727 91.4599C94.8649 58.0259 108.078 41.3089 125.512 41.3089H145.606ZM186.622 733.684V725.004H176.987C170.381 725.004 166.344 722.432 164.875 717.289C163.224 711.502 162.398 697.035 162.398 673.889V82.78C162.398 59.6333 163.224 45.4882 164.875 40.3445C166.344 34.5578 170.381 31.6645 176.987 31.6645H186.622V22.9845H117.254C96.5165 22.9845 79.8167 42.5948 67.1542 81.8155C54.4917 120.393 48.1605 178.908 48.1605 242.561C48.1605 306.215 54.4917 357.33 67.1542 395.908C79.8167 434.485 96.5165 453.774 117.254 453.774H140.927V673.889C140.927 697.035 140.101 711.502 138.449 717.289C136.798 722.432 132.669 725.004 126.062 725.004H119.181V733.684H186.622Z"/>
<path d="M24.5216 11.68C24.5216 5.89333 21.3101 3 14.8871 3C8.28064 3 4.97742 5.89333 4.97742 11.68C4.97742 74.6902 6.17017 166.049 8.55591 273.423C10.9417 380.155 12.1344 464.705 12.1344 527.072H14.0892C14.0892 464.062 18.3739 379.191 20.9431 272.459C23.3289 165.727 24.5216 74.6902 24.5216 11.68ZM14.8871 646.663C11.2168 646.663 8.28052 650.52 6.07837 658.236C3.69263 665.952 2.5 676.56 2.5 690.063C2.5 702.922 3.60107 713.209 5.80322 720.925C8.00537 728.64 11.0333 733.731 14.8871 733.731C18.5574 733.731 21.4938 728.962 23.6959 721.889C25.8981 714.174 26.999 703.565 26.999 690.063C26.999 677.203 25.9897 666.916 23.9711 659.2C21.7689 650.842 18.7408 646.663 14.8871 646.663Z"/>
</mask>
<path d="M1337.5 374.69C1337.5 269.244 1328.69 184.373 1311.07 120.077C1293.46 55.138 1270.31 22.9085 1241.5 22.9085C1221.68 22.9085 1204.82 43.2432 1191.06 84.3928C1189.77 88.8935 1188.76 95.3231 1188.03 103.682L1186.1 101.753C1186.47 95.3231 1186.74 86.0002 1186.93 73.7839L1187.48 3.3796H1185L1182.52 282.103L1187.48 283.068L1188.3 193.375C1189.04 150.939 1195 113.591 1206.2 83.3718C1217.21 53.1526 1229.69 31.9173 1243.63 31.9173C1266.2 31.9173 1283.46 72.5155 1295.38 127.167C1307.13 181.819 1313 255.099 1313 359.259C1313 474.349 1306.85 563.456 1294.56 624.537C1282.08 684.975 1264.09 731.53 1240.6 731.53C1227.21 731.53 1214.82 719.635 1203.44 695.845C1192.07 672.056 1184.08 622.552 1179.49 582.045L1174.81 588.796C1179.95 635.089 1188.58 670.452 1200.69 694.885C1212.62 719.317 1226.11 734 1241.16 734C1269.97 734 1293.27 698.743 1311.07 633.16C1328.69 567.578 1337.5 481.422 1337.5 374.69Z" fill="#C3CFC8"/>
<path d="M1062.41 734C1093.06 734 1117.74 699.064 1136.46 634.125C1155.18 569.186 1164.54 483.35 1164.54 376.619C1164.54 270.53 1155.18 185.016 1136.46 120.077C1117.74 55.138 1093.06 22.6684 1062.41 22.6684C1031.95 22.6684 1007.45 55.138 988.912 120.077C970.194 185.016 960.835 270.53 960.835 376.619C960.835 483.35 970.194 569.186 988.912 634.125C1007.45 699.064 1031.95 734 1062.41 734ZM1061.58 730.509C1036.63 730.509 1017.63 703.183 1004.6 648.531C991.39 593.88 984.783 498.46 984.783 394.943C984.783 279.853 991.573 177.796 1005.15 117.357C1018.55 56.2758 1038 25.7351 1063.51 25.7351C1088.65 25.7351 1107.83 53.061 1121.04 107.713C1134.07 162.364 1140.59 255.742 1140.59 359.259C1140.59 474.349 1133.89 578.77 1120.49 639.851C1106.91 700.29 1087.28 730.509 1061.58 730.509Z" fill="#C3CFC8"/>
<path d="M1241.43 22.9845H911.914V31.6645H933.11V33.5934C929.99 37.4512 927.145 52.2393 924.576 77.9577L861.264 622.552C859.796 634.768 859.062 646.341 859.062 657.271H855.483C855.483 646.341 854.566 633.482 852.73 618.694L791.07 91.4599C789.785 81.8155 789.143 72.814 789.143 64.4555C789.143 42.5948 793.639 31.6645 802.631 31.6645H826.304V22.9845H669.295V31.6645H769.599C773.636 31.6645 776.664 35.8437 778.683 44.2022C780.518 51.9178 782.812 67.6703 785.564 91.4599L858 733.731H873.101L946.047 91.4599C948.8 67.0274 951.186 50.9533 953.204 43.2378C955.04 35.5223 958.068 31.6645 962.288 31.6645H1241.43V22.9845Z" fill="#C3CFC8"/>
<path d="M746.205 347.686C746.205 351.543 746.205 355.401 746.205 359.259C746.205 473.063 739.323 576.142 725.56 637.866C711.612 698.947 692.711 729.488 668.854 729.488C650.502 729.488 634.261 716.629 620.131 690.91C606 664.549 594.898 612.264 586.823 564.685L582.969 575.294C591.594 624.802 603.431 663.38 618.479 691.027C633.344 718.031 650.411 734 669.68 734C698.858 734 722.99 698.743 742.076 633.16C761.161 566.935 770.704 480.779 770.704 374.69C770.704 269.244 761.437 184.373 742.902 120.077C724.183 55.138 699.592 23.6894 669.129 23.6894C644.538 23.6894 623.709 49.9943 606.642 104.646C589.576 159.298 581.042 229.381 581.042 314.894V319.717C581.042 327.432 581.868 334.183 583.52 339.97C585.171 345.114 587.19 347.686 589.576 347.686H746.205ZM745.93 346.661L607.744 340.931C606.275 340.931 605.541 320.681 605.541 314.894C605.541 232.595 611.506 158.203 623.434 108.052C635.179 57.2578 650.778 31.8608 670.23 31.8608C693.72 31.8608 711.98 56.6148 725.009 106.123C737.855 155.631 744.828 252.145 745.93 346.661Z" fill="#C3CFC8"/>
<path d="M572.528 733.684V725.004H562.894C556.287 725.004 552.25 722.432 550.782 717.289C549.13 711.502 548.304 697.035 548.304 673.889V82.78C548.304 59.6333 549.13 45.4882 550.782 40.3445C552.25 34.5578 556.287 31.6645 562.894 31.6645H669.528V22.9845H500.682C478.661 22.9845 460.952 42.5948 447.555 81.8155C434.159 121.036 427.46 180.194 427.46 244.49C427.46 302.357 432.966 350.257 443.977 388.192C454.987 426.127 468.935 447.666 485.818 452.81L491.323 453.774V459.561C478.11 464.705 467.925 486.887 460.768 526.107L447.005 602.298C435.076 667.88 426.084 700.671 420.028 700.671C417.275 700.671 414.614 697.135 412.045 690.063L405.989 671.738L404.613 678.489L410.669 696.814C418.927 721.246 426.543 733.463 433.516 733.463C436.82 733.463 440.031 730.891 443.151 725.747C446.087 721.246 449.023 713.531 451.959 702.6C454.712 691.67 457.006 682.026 458.841 673.667C460.676 664.666 462.97 652.449 465.723 637.018L484.992 532.858C490.13 505.211 494.535 485.922 498.205 474.992C501.875 464.062 506.555 458.596 512.244 458.596H515.547V442.201H502.885C486.185 442.201 473.431 425.484 464.622 392.05C455.813 357.973 451.409 308.786 451.409 244.49C451.409 180.837 455.813 124.894 464.622 91.4599C473.431 57.3829 486.185 40.3445 502.885 40.3445H531.513V41.3089C528.393 52.2393 526.833 68.9563 526.833 91.4599V673.889C526.833 697.035 526.007 711.502 524.356 717.289C522.704 722.432 518.575 725.004 511.969 725.004H496.003V733.684H572.528Z" fill="#C3CFC8"/>
<path d="M340.795 22.9845H270.601V31.6645H282.713C289.32 31.6645 293.449 34.5578 295.1 40.3445C296.568 45.4882 297.302 59.6333 297.302 82.78V600.369C297.302 637.661 294.458 682.287 288.769 701.576C283.08 720.864 274.822 730.509 263.995 730.509C249.313 730.509 238.119 717.971 230.411 692.896C222.52 667.177 218.575 613.872 218.575 565.65V100.14C218.575 75.0644 219.676 57.383 221.878 47.0956C223.897 36.8082 228.026 31.6645 234.265 31.6645H244.45V22.9845H190.772V31.6645H197.929C204.169 31.6645 208.39 36.8082 210.592 47.0956C212.611 57.383 213.62 75.0644 213.62 100.14V565.65C213.62 619.658 217.933 660.808 226.558 689.098C235.183 717.388 247.662 734 263.995 734C280.511 734 293.816 716.424 303.909 686.205C313.819 655.343 318.773 615.158 318.773 565.65V82.78C318.773 59.6333 319.599 45.4882 321.251 40.3445C322.903 34.5578 327.032 31.6645 333.638 31.6645H340.795V22.9845Z" fill="#C3CFC8"/>
<path d="M145.606 41.3089V46.1311C142.487 60.9192 140.927 80.851 140.927 105.927V436.414H125.512C108.078 436.414 94.8649 420.019 85.8727 387.228C76.697 353.794 72.1091 305.572 72.1091 242.561C72.1091 179.551 76.697 124.251 85.8727 91.4599C94.8649 58.0259 108.078 41.3089 125.512 41.3089H145.606ZM186.622 733.684V725.004H176.987C170.381 725.004 166.344 722.432 164.875 717.289C163.224 711.502 162.398 697.035 162.398 673.889V82.78C162.398 59.6333 163.224 45.4882 164.875 40.3445C166.344 34.5578 170.381 31.6645 176.987 31.6645H186.622V22.9845H117.254C96.5165 22.9845 79.8167 42.5948 67.1542 81.8155C54.4917 120.393 48.1605 178.908 48.1605 242.561C48.1605 306.215 54.4917 357.33 67.1542 395.908C79.8167 434.485 96.5165 453.774 117.254 453.774H140.927V673.889C140.927 697.035 140.101 711.502 138.449 717.289C136.798 722.432 132.669 725.004 126.062 725.004H119.181V733.684H186.622Z" fill="#C3CFC8"/>
<path d="M24.5216 11.68C24.5216 5.89333 21.3101 3 14.8871 3C8.28064 3 4.97742 5.89333 4.97742 11.68C4.97742 74.6902 6.17017 166.049 8.55591 273.423C10.9417 380.155 12.1344 464.705 12.1344 527.072H14.0892C14.0892 464.062 18.3739 379.191 20.9431 272.459C23.3289 165.727 24.5216 74.6902 24.5216 11.68ZM14.8871 646.663C11.2168 646.663 8.28052 650.52 6.07837 658.236C3.69263 665.952 2.5 676.56 2.5 690.063C2.5 702.922 3.60107 713.209 5.80322 720.925C8.00537 728.64 11.0333 733.731 14.8871 733.731C18.5574 733.731 21.4938 728.962 23.6959 721.889C25.8981 714.174 26.999 703.565 26.999 690.063C26.999 677.203 25.9897 666.916 23.9711 659.2C21.7689 650.842 18.7408 646.663 14.8871 646.663Z" fill="#C3CFC8"/>
<path d="M1337.5 374.69C1337.5 269.244 1328.69 184.373 1311.07 120.077C1293.46 55.138 1270.31 22.9085 1241.5 22.9085C1221.68 22.9085 1204.82 43.2432 1191.06 84.3928C1189.77 88.8935 1188.76 95.3231 1188.03 103.682L1186.1 101.753C1186.47 95.3231 1186.74 86.0002 1186.93 73.7839L1187.48 3.3796H1185L1182.52 282.103L1187.48 283.068L1188.3 193.375C1189.04 150.939 1195 113.591 1206.2 83.3718C1217.21 53.1526 1229.69 31.9173 1243.63 31.9173C1266.2 31.9173 1283.46 72.5155 1295.38 127.167C1307.13 181.819 1313 255.099 1313 359.259C1313 474.349 1306.85 563.456 1294.56 624.537C1282.08 684.975 1264.09 731.53 1240.6 731.53C1227.21 731.53 1214.82 719.635 1203.44 695.845C1192.07 672.056 1184.08 622.552 1179.49 582.045L1174.81 588.796C1179.95 635.089 1188.58 670.452 1200.69 694.885C1212.62 719.317 1226.11 734 1241.16 734C1269.97 734 1293.27 698.743 1311.07 633.16C1328.69 567.578 1337.5 481.422 1337.5 374.69Z" stroke="#C3CFC8" stroke-width="5" mask="url(#path-1-outside-1_763_133)"/>
<path d="M1062.41 734C1093.06 734 1117.74 699.064 1136.46 634.125C1155.18 569.186 1164.54 483.35 1164.54 376.619C1164.54 270.53 1155.18 185.016 1136.46 120.077C1117.74 55.138 1093.06 22.6684 1062.41 22.6684C1031.95 22.6684 1007.45 55.138 988.912 120.077C970.194 185.016 960.835 270.53 960.835 376.619C960.835 483.35 970.194 569.186 988.912 634.125C1007.45 699.064 1031.95 734 1062.41 734ZM1061.58 730.509C1036.63 730.509 1017.63 703.183 1004.6 648.531C991.39 593.88 984.783 498.46 984.783 394.943C984.783 279.853 991.573 177.796 1005.15 117.357C1018.55 56.2758 1038 25.7351 1063.51 25.7351C1088.65 25.7351 1107.83 53.061 1121.04 107.713C1134.07 162.364 1140.59 255.742 1140.59 359.259C1140.59 474.349 1133.89 578.77 1120.49 639.851C1106.91 700.29 1087.28 730.509 1061.58 730.509Z" stroke="#C3CFC8" stroke-width="5" mask="url(#path-1-outside-1_763_133)"/>
<path d="M1241.43 22.9845H911.914V31.6645H933.11V33.5934C929.99 37.4512 927.145 52.2393 924.576 77.9577L861.264 622.552C859.796 634.768 859.062 646.341 859.062 657.271H855.483C855.483 646.341 854.566 633.482 852.73 618.694L791.07 91.4599C789.785 81.8155 789.143 72.814 789.143 64.4555C789.143 42.5948 793.639 31.6645 802.631 31.6645H826.304V22.9845H669.295V31.6645H769.599C773.636 31.6645 776.664 35.8437 778.683 44.2022C780.518 51.9178 782.812 67.6703 785.564 91.4599L858 733.731H873.101L946.047 91.4599C948.8 67.0274 951.186 50.9533 953.204 43.2378C955.04 35.5223 958.068 31.6645 962.288 31.6645H1241.43V22.9845Z" stroke="#C3CFC8" stroke-width="5" mask="url(#path-1-outside-1_763_133)"/>
<path d="M746.205 347.686C746.205 351.543 746.205 355.401 746.205 359.259C746.205 473.063 739.323 576.142 725.56 637.866C711.612 698.947 692.711 729.488 668.854 729.488C650.502 729.488 634.261 716.629 620.131 690.91C606 664.549 594.898 612.264 586.823 564.685L582.969 575.294C591.594 624.802 603.431 663.38 618.479 691.027C633.344 718.031 650.411 734 669.68 734C698.858 734 722.99 698.743 742.076 633.16C761.161 566.935 770.704 480.779 770.704 374.69C770.704 269.244 761.437 184.373 742.902 120.077C724.183 55.138 699.592 23.6894 669.129 23.6894C644.538 23.6894 623.709 49.9943 606.642 104.646C589.576 159.298 581.042 229.381 581.042 314.894V319.717C581.042 327.432 581.868 334.183 583.52 339.97C585.171 345.114 587.19 347.686 589.576 347.686H746.205ZM745.93 346.661L607.744 340.931C606.275 340.931 605.541 320.681 605.541 314.894C605.541 232.595 611.506 158.203 623.434 108.052C635.179 57.2578 650.778 31.8608 670.23 31.8608C693.72 31.8608 711.98 56.6148 725.009 106.123C737.855 155.631 744.828 252.145 745.93 346.661Z" stroke="#C3CFC8" stroke-width="5" mask="url(#path-1-outside-1_763_133)"/>
<path d="M572.528 733.684V725.004H562.894C556.287 725.004 552.25 722.432 550.782 717.289C549.13 711.502 548.304 697.035 548.304 673.889V82.78C548.304 59.6333 549.13 45.4882 550.782 40.3445C552.25 34.5578 556.287 31.6645 562.894 31.6645H669.528V22.9845H500.682C478.661 22.9845 460.952 42.5948 447.555 81.8155C434.159 121.036 427.46 180.194 427.46 244.49C427.46 302.357 432.966 350.257 443.977 388.192C454.987 426.127 468.935 447.666 485.818 452.81L491.323 453.774V459.561C478.11 464.705 467.925 486.887 460.768 526.107L447.005 602.298C435.076 667.88 426.084 700.671 420.028 700.671C417.275 700.671 414.614 697.135 412.045 690.063L405.989 671.738L404.613 678.489L410.669 696.814C418.927 721.246 426.543 733.463 433.516 733.463C436.82 733.463 440.031 730.891 443.151 725.747C446.087 721.246 449.023 713.531 451.959 702.6C454.712 691.67 457.006 682.026 458.841 673.667C460.676 664.666 462.97 652.449 465.723 637.018L484.992 532.858C490.13 505.211 494.535 485.922 498.205 474.992C501.875 464.062 506.555 458.596 512.244 458.596H515.547V442.201H502.885C486.185 442.201 473.431 425.484 464.622 392.05C455.813 357.973 451.409 308.786 451.409 244.49C451.409 180.837 455.813 124.894 464.622 91.4599C473.431 57.3829 486.185 40.3445 502.885 40.3445H531.513V41.3089C528.393 52.2393 526.833 68.9563 526.833 91.4599V673.889C526.833 697.035 526.007 711.502 524.356 717.289C522.704 722.432 518.575 725.004 511.969 725.004H496.003V733.684H572.528Z" stroke="#C3CFC8" stroke-width="5" mask="url(#path-1-outside-1_763_133)"/>
<path d="M340.795 22.9845H270.601V31.6645H282.713C289.32 31.6645 293.449 34.5578 295.1 40.3445C296.568 45.4882 297.302 59.6333 297.302 82.78V600.369C297.302 637.661 294.458 682.287 288.769 701.576C283.08 720.864 274.822 730.509 263.995 730.509C249.313 730.509 238.119 717.971 230.411 692.896C222.52 667.177 218.575 613.872 218.575 565.65V100.14C218.575 75.0644 219.676 57.383 221.878 47.0956C223.897 36.8082 228.026 31.6645 234.265 31.6645H244.45V22.9845H190.772V31.6645H197.929C204.169 31.6645 208.39 36.8082 210.592 47.0956C212.611 57.383 213.62 75.0644 213.62 100.14V565.65C213.62 619.658 217.933 660.808 226.558 689.098C235.183 717.388 247.662 734 263.995 734C280.511 734 293.816 716.424 303.909 686.205C313.819 655.343 318.773 615.158 318.773 565.65V82.78C318.773 59.6333 319.599 45.4882 321.251 40.3445C322.903 34.5578 327.032 31.6645 333.638 31.6645H340.795V22.9845Z" stroke="#C3CFC8" stroke-width="5" mask="url(#path-1-outside-1_763_133)"/>
<path d="M145.606 41.3089V46.1311C142.487 60.9192 140.927 80.851 140.927 105.927V436.414H125.512C108.078 436.414 94.8649 420.019 85.8727 387.228C76.697 353.794 72.1091 305.572 72.1091 242.561C72.1091 179.551 76.697 124.251 85.8727 91.4599C94.8649 58.0259 108.078 41.3089 125.512 41.3089H145.606ZM186.622 733.684V725.004H176.987C170.381 725.004 166.344 722.432 164.875 717.289C163.224 711.502 162.398 697.035 162.398 673.889V82.78C162.398 59.6333 163.224 45.4882 164.875 40.3445C166.344 34.5578 170.381 31.6645 176.987 31.6645H186.622V22.9845H117.254C96.5165 22.9845 79.8167 42.5948 67.1542 81.8155C54.4917 120.393 48.1605 178.908 48.1605 242.561C48.1605 306.215 54.4917 357.33 67.1542 395.908C79.8167 434.485 96.5165 453.774 117.254 453.774H140.927V673.889C140.927 697.035 140.101 711.502 138.449 717.289C136.798 722.432 132.669 725.004 126.062 725.004H119.181V733.684H186.622Z" stroke="#C3CFC8" stroke-width="5" mask="url(#path-1-outside-1_763_133)"/>
<path d="M24.5216 11.68C24.5216 5.89333 21.3101 3 14.8871 3C8.28064 3 4.97742 5.89333 4.97742 11.68C4.97742 74.6902 6.17017 166.049 8.55591 273.423C10.9417 380.155 12.1344 464.705 12.1344 527.072H14.0892C14.0892 464.062 18.3739 379.191 20.9431 272.459C23.3289 165.727 24.5216 74.6902 24.5216 11.68ZM14.8871 646.663C11.2168 646.663 8.28052 650.52 6.07837 658.236C3.69263 665.952 2.5 676.56 2.5 690.063C2.5 702.922 3.60107 713.209 5.80322 720.925C8.00537 728.64 11.0333 733.731 14.8871 733.731C18.5574 733.731 21.4938 728.962 23.6959 721.889C25.8981 714.174 26.999 703.565 26.999 690.063C26.999 677.203 25.9897 666.916 23.9711 659.2C21.7689 650.842 18.7408 646.663 14.8871 646.663Z" stroke="#C3CFC8" stroke-width="5" mask="url(#path-1-outside-1_763_133)"/>
</svg>
