<svg width="1340" height="737" viewBox="0 0 1340 737" fill="none" xmlns="http://www.w3.org/2000/svg">
<mask id="path-1-outside-1_763_134" maskUnits="userSpaceOnUse" x="-0.5" y="0" width="1341" height="737" fill="black">
<rect fill="white" x="-0.5" width="1341" height="737"/>
<path d="M2.5 374.69C2.5 269.244 11.3087 184.373 28.926 120.077C46.5434 55.138 69.6883 22.9085 98.5 22.9085C118.32 22.9085 135.181 43.2432 148.944 84.3928C150.229 88.8935 151.238 95.3231 151.972 103.682L153.899 101.753C153.532 95.3231 153.257 86.0002 153.073 73.7839L152.523 3.3796H155L157.478 282.103L152.523 283.068L151.697 193.375C150.963 150.939 144.999 113.591 133.804 83.3718C122.793 53.1526 110.315 31.9173 96.3674 31.9173C73.7952 31.9173 56.5449 72.5155 44.6165 127.167C32.8716 181.819 26.9991 255.099 26.9991 359.259C26.9991 474.349 33.1468 563.456 45.4423 624.537C57.9212 684.975 75.9056 731.53 99.3954 731.53C112.792 731.53 125.179 719.635 136.557 695.845C147.935 672.056 155.918 622.552 160.506 582.045L165.185 588.796C160.047 635.089 151.422 670.452 139.31 694.885C127.381 719.317 113.893 734 98.8449 734C70.0332 734 46.7269 698.743 28.926 633.16C11.3087 567.578 2.5 481.422 2.5 374.69Z"/>
<path d="M277.59 734C246.944 734 222.261 699.064 203.542 634.125C184.824 569.186 175.465 483.35 175.465 376.619C175.465 270.53 184.824 185.016 203.542 120.077C222.261 55.138 246.944 22.6684 277.59 22.6684C308.054 22.6684 332.553 55.138 351.088 120.077C369.806 185.016 379.165 270.53 379.165 376.619C379.165 483.35 369.806 569.186 351.088 634.125C332.553 699.064 308.054 734 277.59 734ZM278.416 730.509C303.374 730.509 322.368 703.183 335.397 648.531C348.61 593.88 355.217 498.46 355.217 394.943C355.217 279.853 348.427 177.796 334.847 117.357C321.45 56.2758 301.998 25.7351 276.489 25.7351C251.348 25.7351 232.171 53.061 218.958 107.713C205.928 162.364 199.413 255.742 199.413 359.259C199.413 474.349 206.112 578.77 219.508 639.851C233.088 700.29 252.724 730.509 278.416 730.509Z"/>
<path d="M98.5696 22.9845H428.086V31.6645H406.89V33.5934C410.01 37.4512 412.855 52.2393 415.424 77.9577L478.736 622.552C480.204 634.768 480.938 646.341 480.938 657.271H484.517C484.517 646.341 485.434 633.482 487.27 618.694L548.93 91.4599C550.215 81.8155 550.857 72.814 550.857 64.4555C550.857 42.5948 546.361 31.6645 537.369 31.6645H513.696V22.9845H670.705V31.6645H570.401C566.364 31.6645 563.336 35.8437 561.317 44.2022C559.482 51.9178 557.188 67.6703 554.436 91.4599L482 733.731H466.899L393.953 91.4599C391.2 67.0274 388.814 50.9533 386.796 43.2378C384.96 35.5223 381.932 31.6645 377.712 31.6645H98.5696V22.9845Z"/>
<path d="M593.795 347.686C593.795 351.543 593.795 355.401 593.795 359.259C593.795 473.063 600.677 576.142 614.44 637.866C628.388 698.947 647.289 729.488 671.146 729.488C689.498 729.488 705.739 716.629 719.869 690.91C734 664.549 745.102 612.264 753.177 564.685L757.031 575.294C748.406 624.802 736.569 663.38 721.521 691.027C706.656 718.031 689.589 734 670.32 734C641.142 734 617.01 698.743 597.924 633.16C578.839 566.935 569.296 480.779 569.296 374.69C569.296 269.244 578.563 184.373 597.098 120.077C615.817 55.138 640.408 23.6894 670.871 23.6894C695.462 23.6894 716.291 49.9943 733.358 104.646C750.424 159.298 758.958 229.381 758.958 314.894V319.717C758.958 327.432 758.132 334.183 756.48 339.97C754.829 345.114 752.81 347.686 750.424 347.686H593.795ZM594.07 346.661L732.256 340.931C733.725 340.931 734.459 320.681 734.459 314.894C734.459 232.595 728.494 158.203 716.566 108.052C704.821 57.2578 689.222 31.8608 669.77 31.8608C646.28 31.8608 628.02 56.6148 614.991 106.123C602.145 155.631 595.172 252.145 594.07 346.661Z"/>
<path d="M767.472 733.684V725.004H777.106C783.713 725.004 787.75 722.432 789.218 717.289C790.87 711.502 791.696 697.035 791.696 673.889V82.78C791.696 59.6333 790.87 45.4882 789.218 40.3445C787.75 34.5578 783.713 31.6645 777.106 31.6645H670.472V22.9845H839.318C861.339 22.9845 879.048 42.5948 892.445 81.8155C905.841 121.036 912.54 180.194 912.54 244.49C912.54 302.357 907.034 350.257 896.023 388.192C885.013 426.127 871.065 447.666 854.182 452.81L848.677 453.774V459.561C861.89 464.705 872.075 486.887 879.232 526.107L892.995 602.298C904.924 667.88 913.916 700.671 919.972 700.671C922.725 700.671 925.386 697.135 927.955 690.063L934.011 671.738L935.387 678.489L929.331 696.814C921.073 721.246 913.457 733.463 906.484 733.463C903.18 733.463 899.969 730.891 896.849 725.747C893.913 721.246 890.977 713.531 888.041 702.6C885.288 691.67 882.994 682.026 881.159 673.667C879.324 664.666 877.03 652.449 874.277 637.018L855.008 532.858C849.87 505.211 845.465 485.922 841.795 474.992C838.125 464.062 825.445 458.596 819.756 458.596H816.453V442.201H829.115C845.815 442.201 866.569 425.484 875.378 392.05C884.187 357.973 888.591 308.786 888.591 244.49C888.591 180.837 884.187 124.894 875.378 91.4599C866.569 57.3829 853.815 40.3445 837.115 40.3445H808.487V41.3089C811.607 52.2393 813.167 68.9563 813.167 91.4599V673.889C813.167 697.035 813.993 711.502 815.644 717.289C817.296 722.432 821.425 725.004 828.031 725.004H843.997V733.684H767.472Z"/>
<path d="M999.205 22.9845H1069.4V31.6645H1057.29C1050.68 31.6645 1046.55 34.5578 1044.9 40.3445C1043.43 45.4882 1042.7 59.6333 1042.7 82.78V600.369C1042.7 637.661 1045.54 682.287 1051.23 701.576C1056.92 720.864 1065.18 730.509 1076.01 730.509C1090.69 730.509 1101.88 717.971 1109.59 692.896C1117.48 667.177 1121.43 613.872 1121.43 565.65V100.14C1121.43 75.0644 1120.32 57.383 1118.12 47.0956C1116.1 36.8082 1111.97 31.6645 1105.73 31.6645H1095.55V22.9845H1149.23V31.6645H1142.07C1135.83 31.6645 1131.61 36.8082 1129.41 47.0956C1127.39 57.383 1126.38 75.0644 1126.38 100.14V565.65C1126.38 619.658 1122.07 660.808 1113.44 689.098C1104.82 717.388 1092.34 734 1076.01 734C1059.49 734 1046.18 716.424 1036.09 686.205C1026.18 655.343 1021.23 615.158 1021.23 565.65V82.78C1021.23 59.6333 1020.4 45.4882 1018.75 40.3445C1017.1 34.5578 1012.97 31.6645 1006.36 31.6645H999.205V22.9845Z"/>
<path d="M1194.39 41.3089V46.1311C1197.51 60.9192 1199.07 80.851 1199.07 105.927V436.414H1214.49C1231.92 436.414 1245.14 420.019 1254.13 387.228C1263.3 353.794 1267.89 305.572 1267.89 242.561C1267.89 179.551 1263.3 124.251 1254.13 91.4599C1245.14 58.0259 1231.92 41.3089 1214.49 41.3089H1194.39ZM1153.38 733.684V725.004H1163.01C1169.62 725.004 1173.66 722.432 1175.12 717.289C1176.78 711.502 1177.6 697.035 1177.6 673.889V82.78C1177.6 59.6333 1176.78 45.4882 1175.12 40.3445C1173.66 34.5578 1169.62 31.6645 1163.01 31.6645H1153.38V22.9845H1222.75C1243.48 22.9845 1260.18 42.5948 1272.85 81.8155C1285.51 120.393 1291.84 178.908 1291.84 242.561C1291.84 306.215 1285.51 357.33 1272.85 395.908C1260.18 434.485 1243.48 453.774 1222.75 453.774H1199.07V673.889C1199.07 697.035 1199.9 711.502 1201.55 717.289C1203.2 722.432 1207.33 725.004 1213.94 725.004H1220.82V733.684H1153.38Z"/>
<path d="M1315.48 11.68C1315.48 5.89333 1318.69 3 1325.11 3C1331.72 3 1335.02 5.89333 1335.02 11.68C1335.02 74.6902 1333.83 166.049 1331.44 273.423C1329.06 380.155 1327.87 464.705 1327.87 527.072H1325.91C1325.91 464.062 1321.63 379.191 1319.06 272.459C1316.67 165.727 1315.48 74.6902 1315.48 11.68ZM1325.11 646.663C1328.78 646.663 1331.72 650.52 1333.92 658.236C1336.31 665.952 1337.5 676.56 1337.5 690.063C1337.5 702.922 1336.4 713.209 1334.2 720.925C1331.99 728.64 1328.97 733.731 1325.11 733.731C1321.44 733.731 1318.51 728.962 1316.3 721.889C1314.1 714.174 1313 703.565 1313 690.063C1313 677.203 1314.01 666.916 1316.03 659.2C1318.23 650.842 1321.26 646.663 1325.11 646.663Z"/>
</mask>
<path d="M2.5 374.69C2.5 269.244 11.3087 184.373 28.926 120.077C46.5434 55.138 69.6883 22.9085 98.5 22.9085C118.32 22.9085 135.181 43.2432 148.944 84.3928C150.229 88.8935 151.238 95.3231 151.972 103.682L153.899 101.753C153.532 95.3231 153.257 86.0002 153.073 73.7839L152.523 3.3796H155L157.478 282.103L152.523 283.068L151.697 193.375C150.963 150.939 144.999 113.591 133.804 83.3718C122.793 53.1526 110.315 31.9173 96.3674 31.9173C73.7952 31.9173 56.5449 72.5155 44.6165 127.167C32.8716 181.819 26.9991 255.099 26.9991 359.259C26.9991 474.349 33.1468 563.456 45.4423 624.537C57.9212 684.975 75.9056 731.53 99.3954 731.53C112.792 731.53 125.179 719.635 136.557 695.845C147.935 672.056 155.918 622.552 160.506 582.045L165.185 588.796C160.047 635.089 151.422 670.452 139.31 694.885C127.381 719.317 113.893 734 98.8449 734C70.0332 734 46.7269 698.743 28.926 633.16C11.3087 567.578 2.5 481.422 2.5 374.69Z" fill="black"/>
<path d="M277.59 734C246.944 734 222.261 699.064 203.542 634.125C184.824 569.186 175.465 483.35 175.465 376.619C175.465 270.53 184.824 185.016 203.542 120.077C222.261 55.138 246.944 22.6684 277.59 22.6684C308.054 22.6684 332.553 55.138 351.088 120.077C369.806 185.016 379.165 270.53 379.165 376.619C379.165 483.35 369.806 569.186 351.088 634.125C332.553 699.064 308.054 734 277.59 734ZM278.416 730.509C303.374 730.509 322.368 703.183 335.397 648.531C348.61 593.88 355.217 498.46 355.217 394.943C355.217 279.853 348.427 177.796 334.847 117.357C321.45 56.2758 301.998 25.7351 276.489 25.7351C251.348 25.7351 232.171 53.061 218.958 107.713C205.928 162.364 199.413 255.742 199.413 359.259C199.413 474.349 206.112 578.77 219.508 639.851C233.088 700.29 252.724 730.509 278.416 730.509Z" fill="black"/>
<path d="M98.5696 22.9845H428.086V31.6645H406.89V33.5934C410.01 37.4512 412.855 52.2393 415.424 77.9577L478.736 622.552C480.204 634.768 480.938 646.341 480.938 657.271H484.517C484.517 646.341 485.434 633.482 487.27 618.694L548.93 91.4599C550.215 81.8155 550.857 72.814 550.857 64.4555C550.857 42.5948 546.361 31.6645 537.369 31.6645H513.696V22.9845H670.705V31.6645H570.401C566.364 31.6645 563.336 35.8437 561.317 44.2022C559.482 51.9178 557.188 67.6703 554.436 91.4599L482 733.731H466.899L393.953 91.4599C391.2 67.0274 388.814 50.9533 386.796 43.2378C384.96 35.5223 381.932 31.6645 377.712 31.6645H98.5696V22.9845Z" fill="black"/>
<path d="M593.795 347.686C593.795 351.543 593.795 355.401 593.795 359.259C593.795 473.063 600.677 576.142 614.44 637.866C628.388 698.947 647.289 729.488 671.146 729.488C689.498 729.488 705.739 716.629 719.869 690.91C734 664.549 745.102 612.264 753.177 564.685L757.031 575.294C748.406 624.802 736.569 663.38 721.521 691.027C706.656 718.031 689.589 734 670.32 734C641.142 734 617.01 698.743 597.924 633.16C578.839 566.935 569.296 480.779 569.296 374.69C569.296 269.244 578.563 184.373 597.098 120.077C615.817 55.138 640.408 23.6894 670.871 23.6894C695.462 23.6894 716.291 49.9943 733.358 104.646C750.424 159.298 758.958 229.381 758.958 314.894V319.717C758.958 327.432 758.132 334.183 756.48 339.97C754.829 345.114 752.81 347.686 750.424 347.686H593.795ZM594.07 346.661L732.256 340.931C733.725 340.931 734.459 320.681 734.459 314.894C734.459 232.595 728.494 158.203 716.566 108.052C704.821 57.2578 689.222 31.8608 669.77 31.8608C646.28 31.8608 628.02 56.6148 614.991 106.123C602.145 155.631 595.172 252.145 594.07 346.661Z" fill="black"/>
<path d="M767.472 733.684V725.004H777.106C783.713 725.004 787.75 722.432 789.218 717.289C790.87 711.502 791.696 697.035 791.696 673.889V82.78C791.696 59.6333 790.87 45.4882 789.218 40.3445C787.75 34.5578 783.713 31.6645 777.106 31.6645H670.472V22.9845H839.318C861.339 22.9845 879.048 42.5948 892.445 81.8155C905.841 121.036 912.54 180.194 912.54 244.49C912.54 302.357 907.034 350.257 896.023 388.192C885.013 426.127 871.065 447.666 854.182 452.81L848.677 453.774V459.561C861.89 464.705 872.075 486.887 879.232 526.107L892.995 602.298C904.924 667.88 913.916 700.671 919.972 700.671C922.725 700.671 925.386 697.135 927.955 690.063L934.011 671.738L935.387 678.489L929.331 696.814C921.073 721.246 913.457 733.463 906.484 733.463C903.18 733.463 899.969 730.891 896.849 725.747C893.913 721.246 890.977 713.531 888.041 702.6C885.288 691.67 882.994 682.026 881.159 673.667C879.324 664.666 877.03 652.449 874.277 637.018L855.008 532.858C849.87 505.211 845.465 485.922 841.795 474.992C838.125 464.062 825.445 458.596 819.756 458.596H816.453V442.201H829.115C845.815 442.201 866.569 425.484 875.378 392.05C884.187 357.973 888.591 308.786 888.591 244.49C888.591 180.837 884.187 124.894 875.378 91.4599C866.569 57.3829 853.815 40.3445 837.115 40.3445H808.487V41.3089C811.607 52.2393 813.167 68.9563 813.167 91.4599V673.889C813.167 697.035 813.993 711.502 815.644 717.289C817.296 722.432 821.425 725.004 828.031 725.004H843.997V733.684H767.472Z" fill="black"/>
<path d="M999.205 22.9845H1069.4V31.6645H1057.29C1050.68 31.6645 1046.55 34.5578 1044.9 40.3445C1043.43 45.4882 1042.7 59.6333 1042.7 82.78V600.369C1042.7 637.661 1045.54 682.287 1051.23 701.576C1056.92 720.864 1065.18 730.509 1076.01 730.509C1090.69 730.509 1101.88 717.971 1109.59 692.896C1117.48 667.177 1121.43 613.872 1121.43 565.65V100.14C1121.43 75.0644 1120.32 57.383 1118.12 47.0956C1116.1 36.8082 1111.97 31.6645 1105.73 31.6645H1095.55V22.9845H1149.23V31.6645H1142.07C1135.83 31.6645 1131.61 36.8082 1129.41 47.0956C1127.39 57.383 1126.38 75.0644 1126.38 100.14V565.65C1126.38 619.658 1122.07 660.808 1113.44 689.098C1104.82 717.388 1092.34 734 1076.01 734C1059.49 734 1046.18 716.424 1036.09 686.205C1026.18 655.343 1021.23 615.158 1021.23 565.65V82.78C1021.23 59.6333 1020.4 45.4882 1018.75 40.3445C1017.1 34.5578 1012.97 31.6645 1006.36 31.6645H999.205V22.9845Z" fill="black"/>
<path d="M1194.39 41.3089V46.1311C1197.51 60.9192 1199.07 80.851 1199.07 105.927V436.414H1214.49C1231.92 436.414 1245.14 420.019 1254.13 387.228C1263.3 353.794 1267.89 305.572 1267.89 242.561C1267.89 179.551 1263.3 124.251 1254.13 91.4599C1245.14 58.0259 1231.92 41.3089 1214.49 41.3089H1194.39ZM1153.38 733.684V725.004H1163.01C1169.62 725.004 1173.66 722.432 1175.12 717.289C1176.78 711.502 1177.6 697.035 1177.6 673.889V82.78C1177.6 59.6333 1176.78 45.4882 1175.12 40.3445C1173.66 34.5578 1169.62 31.6645 1163.01 31.6645H1153.38V22.9845H1222.75C1243.48 22.9845 1260.18 42.5948 1272.85 81.8155C1285.51 120.393 1291.84 178.908 1291.84 242.561C1291.84 306.215 1285.51 357.33 1272.85 395.908C1260.18 434.485 1243.48 453.774 1222.75 453.774H1199.07V673.889C1199.07 697.035 1199.9 711.502 1201.55 717.289C1203.2 722.432 1207.33 725.004 1213.94 725.004H1220.82V733.684H1153.38Z" fill="black"/>
<path d="M1315.48 11.68C1315.48 5.89333 1318.69 3 1325.11 3C1331.72 3 1335.02 5.89333 1335.02 11.68C1335.02 74.6902 1333.83 166.049 1331.44 273.423C1329.06 380.155 1327.87 464.705 1327.87 527.072H1325.91C1325.91 464.062 1321.63 379.191 1319.06 272.459C1316.67 165.727 1315.48 74.6902 1315.48 11.68ZM1325.11 646.663C1328.78 646.663 1331.72 650.52 1333.92 658.236C1336.31 665.952 1337.5 676.56 1337.5 690.063C1337.5 702.922 1336.4 713.209 1334.2 720.925C1331.99 728.64 1328.97 733.731 1325.11 733.731C1321.44 733.731 1318.51 728.962 1316.3 721.889C1314.1 714.174 1313 703.565 1313 690.063C1313 677.203 1314.01 666.916 1316.03 659.2C1318.23 650.842 1321.26 646.663 1325.11 646.663Z" fill="black"/>
<path d="M2.5 374.69C2.5 269.244 11.3087 184.373 28.926 120.077C46.5434 55.138 69.6883 22.9085 98.5 22.9085C118.32 22.9085 135.181 43.2432 148.944 84.3928C150.229 88.8935 151.238 95.3231 151.972 103.682L153.899 101.753C153.532 95.3231 153.257 86.0002 153.073 73.7839L152.523 3.3796H155L157.478 282.103L152.523 283.068L151.697 193.375C150.963 150.939 144.999 113.591 133.804 83.3718C122.793 53.1526 110.315 31.9173 96.3674 31.9173C73.7952 31.9173 56.5449 72.5155 44.6165 127.167C32.8716 181.819 26.9991 255.099 26.9991 359.259C26.9991 474.349 33.1468 563.456 45.4423 624.537C57.9212 684.975 75.9056 731.53 99.3954 731.53C112.792 731.53 125.179 719.635 136.557 695.845C147.935 672.056 155.918 622.552 160.506 582.045L165.185 588.796C160.047 635.089 151.422 670.452 139.31 694.885C127.381 719.317 113.893 734 98.8449 734C70.0332 734 46.7269 698.743 28.926 633.16C11.3087 567.578 2.5 481.422 2.5 374.69Z" stroke="black" stroke-width="5" mask="url(#path-1-outside-1_763_134)"/>
<path d="M277.59 734C246.944 734 222.261 699.064 203.542 634.125C184.824 569.186 175.465 483.35 175.465 376.619C175.465 270.53 184.824 185.016 203.542 120.077C222.261 55.138 246.944 22.6684 277.59 22.6684C308.054 22.6684 332.553 55.138 351.088 120.077C369.806 185.016 379.165 270.53 379.165 376.619C379.165 483.35 369.806 569.186 351.088 634.125C332.553 699.064 308.054 734 277.59 734ZM278.416 730.509C303.374 730.509 322.368 703.183 335.397 648.531C348.61 593.88 355.217 498.46 355.217 394.943C355.217 279.853 348.427 177.796 334.847 117.357C321.45 56.2758 301.998 25.7351 276.489 25.7351C251.348 25.7351 232.171 53.061 218.958 107.713C205.928 162.364 199.413 255.742 199.413 359.259C199.413 474.349 206.112 578.77 219.508 639.851C233.088 700.29 252.724 730.509 278.416 730.509Z" stroke="black" stroke-width="5" mask="url(#path-1-outside-1_763_134)"/>
<path d="M98.5696 22.9845H428.086V31.6645H406.89V33.5934C410.01 37.4512 412.855 52.2393 415.424 77.9577L478.736 622.552C480.204 634.768 480.938 646.341 480.938 657.271H484.517C484.517 646.341 485.434 633.482 487.27 618.694L548.93 91.4599C550.215 81.8155 550.857 72.814 550.857 64.4555C550.857 42.5948 546.361 31.6645 537.369 31.6645H513.696V22.9845H670.705V31.6645H570.401C566.364 31.6645 563.336 35.8437 561.317 44.2022C559.482 51.9178 557.188 67.6703 554.436 91.4599L482 733.731H466.899L393.953 91.4599C391.2 67.0274 388.814 50.9533 386.796 43.2378C384.96 35.5223 381.932 31.6645 377.712 31.6645H98.5696V22.9845Z" stroke="black" stroke-width="5" mask="url(#path-1-outside-1_763_134)"/>
<path d="M593.795 347.686C593.795 351.543 593.795 355.401 593.795 359.259C593.795 473.063 600.677 576.142 614.44 637.866C628.388 698.947 647.289 729.488 671.146 729.488C689.498 729.488 705.739 716.629 719.869 690.91C734 664.549 745.102 612.264 753.177 564.685L757.031 575.294C748.406 624.802 736.569 663.38 721.521 691.027C706.656 718.031 689.589 734 670.32 734C641.142 734 617.01 698.743 597.924 633.16C578.839 566.935 569.296 480.779 569.296 374.69C569.296 269.244 578.563 184.373 597.098 120.077C615.817 55.138 640.408 23.6894 670.871 23.6894C695.462 23.6894 716.291 49.9943 733.358 104.646C750.424 159.298 758.958 229.381 758.958 314.894V319.717C758.958 327.432 758.132 334.183 756.48 339.97C754.829 345.114 752.81 347.686 750.424 347.686H593.795ZM594.07 346.661L732.256 340.931C733.725 340.931 734.459 320.681 734.459 314.894C734.459 232.595 728.494 158.203 716.566 108.052C704.821 57.2578 689.222 31.8608 669.77 31.8608C646.28 31.8608 628.02 56.6148 614.991 106.123C602.145 155.631 595.172 252.145 594.07 346.661Z" stroke="black" stroke-width="5" mask="url(#path-1-outside-1_763_134)"/>
<path d="M767.472 733.684V725.004H777.106C783.713 725.004 787.75 722.432 789.218 717.289C790.87 711.502 791.696 697.035 791.696 673.889V82.78C791.696 59.6333 790.87 45.4882 789.218 40.3445C787.75 34.5578 783.713 31.6645 777.106 31.6645H670.472V22.9845H839.318C861.339 22.9845 879.048 42.5948 892.445 81.8155C905.841 121.036 912.54 180.194 912.54 244.49C912.54 302.357 907.034 350.257 896.023 388.192C885.013 426.127 871.065 447.666 854.182 452.81L848.677 453.774V459.561C861.89 464.705 872.075 486.887 879.232 526.107L892.995 602.298C904.924 667.88 913.916 700.671 919.972 700.671C922.725 700.671 925.386 697.135 927.955 690.063L934.011 671.738L935.387 678.489L929.331 696.814C921.073 721.246 913.457 733.463 906.484 733.463C903.18 733.463 899.969 730.891 896.849 725.747C893.913 721.246 890.977 713.531 888.041 702.6C885.288 691.67 882.994 682.026 881.159 673.667C879.324 664.666 877.03 652.449 874.277 637.018L855.008 532.858C849.87 505.211 845.465 485.922 841.795 474.992C838.125 464.062 825.445 458.596 819.756 458.596H816.453V442.201H829.115C845.815 442.201 866.569 425.484 875.378 392.05C884.187 357.973 888.591 308.786 888.591 244.49C888.591 180.837 884.187 124.894 875.378 91.4599C866.569 57.3829 853.815 40.3445 837.115 40.3445H808.487V41.3089C811.607 52.2393 813.167 68.9563 813.167 91.4599V673.889C813.167 697.035 813.993 711.502 815.644 717.289C817.296 722.432 821.425 725.004 828.031 725.004H843.997V733.684H767.472Z" stroke="black" stroke-width="5" mask="url(#path-1-outside-1_763_134)"/>
<path d="M999.205 22.9845H1069.4V31.6645H1057.29C1050.68 31.6645 1046.55 34.5578 1044.9 40.3445C1043.43 45.4882 1042.7 59.6333 1042.7 82.78V600.369C1042.7 637.661 1045.54 682.287 1051.23 701.576C1056.92 720.864 1065.18 730.509 1076.01 730.509C1090.69 730.509 1101.88 717.971 1109.59 692.896C1117.48 667.177 1121.43 613.872 1121.43 565.65V100.14C1121.43 75.0644 1120.32 57.383 1118.12 47.0956C1116.1 36.8082 1111.97 31.6645 1105.73 31.6645H1095.55V22.9845H1149.23V31.6645H1142.07C1135.83 31.6645 1131.61 36.8082 1129.41 47.0956C1127.39 57.383 1126.38 75.0644 1126.38 100.14V565.65C1126.38 619.658 1122.07 660.808 1113.44 689.098C1104.82 717.388 1092.34 734 1076.01 734C1059.49 734 1046.18 716.424 1036.09 686.205C1026.18 655.343 1021.23 615.158 1021.23 565.65V82.78C1021.23 59.6333 1020.4 45.4882 1018.75 40.3445C1017.1 34.5578 1012.97 31.6645 1006.36 31.6645H999.205V22.9845Z" stroke="black" stroke-width="5" mask="url(#path-1-outside-1_763_134)"/>
<path d="M1194.39 41.3089V46.1311C1197.51 60.9192 1199.07 80.851 1199.07 105.927V436.414H1214.49C1231.92 436.414 1245.14 420.019 1254.13 387.228C1263.3 353.794 1267.89 305.572 1267.89 242.561C1267.89 179.551 1263.3 124.251 1254.13 91.4599C1245.14 58.0259 1231.92 41.3089 1214.49 41.3089H1194.39ZM1153.38 733.684V725.004H1163.01C1169.62 725.004 1173.66 722.432 1175.12 717.289C1176.78 711.502 1177.6 697.035 1177.6 673.889V82.78C1177.6 59.6333 1176.78 45.4882 1175.12 40.3445C1173.66 34.5578 1169.62 31.6645 1163.01 31.6645H1153.38V22.9845H1222.75C1243.48 22.9845 1260.18 42.5948 1272.85 81.8155C1285.51 120.393 1291.84 178.908 1291.84 242.561C1291.84 306.215 1285.51 357.33 1272.85 395.908C1260.18 434.485 1243.48 453.774 1222.75 453.774H1199.07V673.889C1199.07 697.035 1199.9 711.502 1201.55 717.289C1203.2 722.432 1207.33 725.004 1213.94 725.004H1220.82V733.684H1153.38Z" stroke="black" stroke-width="5" mask="url(#path-1-outside-1_763_134)"/>
<path d="M1315.48 11.68C1315.48 5.89333 1318.69 3 1325.11 3C1331.72 3 1335.02 5.89333 1335.02 11.68C1335.02 74.6902 1333.83 166.049 1331.44 273.423C1329.06 380.155 1327.87 464.705 1327.87 527.072H1325.91C1325.91 464.062 1321.63 379.191 1319.06 272.459C1316.67 165.727 1315.48 74.6902 1315.48 11.68ZM1325.11 646.663C1328.78 646.663 1331.72 650.52 1333.92 658.236C1336.31 665.952 1337.5 676.56 1337.5 690.063C1337.5 702.922 1336.4 713.209 1334.2 720.925C1331.99 728.64 1328.97 733.731 1325.11 733.731C1321.44 733.731 1318.51 728.962 1316.3 721.889C1314.1 714.174 1313 703.565 1313 690.063C1313 677.203 1314.01 666.916 1316.03 659.2C1318.23 650.842 1321.26 646.663 1325.11 646.663Z" stroke="black" stroke-width="5" mask="url(#path-1-outside-1_763_134)"/>
</svg>
