<svg width="420" height="408" viewBox="0 0 420 408" fill="none" xmlns="http://www.w3.org/2000/svg">
<g clip-path="url(#clip0_839_1333)">
<path d="M269.604 433.626C285.78 405.609 248.123 358.851 175.223 316.762C102.653 274.864 43.33 265.631 27.1545 293.648C10.8325 321.918 48.49 368.676 121.06 410.575C193.96 452.664 253.283 461.897 269.604 433.626ZM263.887 429.818C250.199 453.525 200.658 441.825 121.49 396.117C50.5695 355.171 19.4782 320.656 32.7993 297.583C46.3399 274.13 96.2848 285.893 175.122 331.41C246.373 372.547 277.134 406.872 263.887 429.818Z" fill="white"/>
<path d="M446.75 186.859C462.926 158.842 425.269 112.084 352.369 69.9948C279.799 28.0965 220.476 18.8632 204.3 46.8802C187.979 75.1506 225.636 121.909 298.206 163.807C371.106 205.896 430.429 215.129 446.75 186.859ZM441.033 183.05C427.345 206.757 377.804 195.057 298.636 149.35C227.716 108.404 196.624 73.8881 209.945 50.8153C223.486 27.3622 273.431 39.1258 352.268 84.6426C423.519 125.779 454.28 160.104 441.033 183.05Z" fill="white"/>
<path d="M296.525 472.217C324.275 455.587 304.102 379.778 245.836 282.55C187.834 185.761 130.494 132.225 102.744 148.855C74.7433 165.635 94.9158 241.444 152.918 338.233C211.184 435.461 268.524 488.997 296.525 472.217ZM292.156 464.072C268.675 478.143 222.372 429.355 159.097 323.767C102.413 229.178 84.1348 170.77 106.988 157.075C130.217 143.154 176.91 192.308 239.921 297.455C296.869 392.484 314.883 450.453 292.156 464.072Z" fill="white"/>
<path d="M253.964 538.866C286.315 538.866 307.98 463.47 307.98 350.119C307.98 237.282 286.315 161.886 253.964 161.886C221.32 161.886 199.655 237.282 199.655 350.119C199.655 463.47 221.32 538.866 253.964 538.866ZM254.403 529.634C227.029 529.634 212.391 463.983 212.391 340.887C212.391 230.614 226.737 171.118 253.379 171.118C280.46 171.118 295.245 237.282 295.245 359.864C295.245 470.65 280.899 529.634 254.403 529.634Z" fill="white"/>
</g>
<defs>
<clipPath id="clip0_839_1333">
<rect width="420" height="408" fill="white"/>
</clipPath>
</defs>
</svg>
