<svg width="635" height="260" viewBox="0 0 635 260" fill="none" xmlns="http://www.w3.org/2000/svg">
<g clip-path="url(#clip0_843_1607)">
<path d="M633.643 280.019L633.345 280.019C629.773 277.202 626.202 276.028 619.356 276.028L444.644 276.028C437.798 276.028 434.227 277.202 430.655 280.019L430.357 280.019L430.357 255.134C430.357 204.658 466.074 177.19 531.851 177.19C598.224 177.19 633.643 204.658 633.643 255.134L633.643 280.019ZM639 315L639 248.795C639 193.859 596.14 157 531.851 157C467.86 157 425 193.859 425 248.795L425 315L427.679 315L427.679 306.783C427.679 295.514 431.846 294.34 446.132 294.34L620.547 294.34C634.833 294.34 636.321 295.514 636.321 306.783L636.321 315L639 315Z" fill="white"/>
<path d="M579.019 -45.6426L579.019 -45.3449C576.202 -41.7733 575.028 -38.2017 575.028 -31.3561L575.028 143.356C575.028 150.202 576.202 153.773 579.019 157.345L579.019 157.643L554.134 157.643C503.658 157.643 476.19 121.926 476.19 56.1488C476.19 -10.2239 503.658 -45.6426 554.134 -45.6426L579.019 -45.6426ZM614 -51L547.795 -51C492.859 -51 456 -8.14047 456 56.1488C456 120.14 492.859 163 547.795 163L614 163L614 160.321L605.783 160.321C594.514 160.321 593.34 156.154 593.34 141.868L593.34 -32.5466C593.34 -46.8331 594.514 -48.3213 605.783 -48.3213L614 -48.3213L614 -51Z" fill="white"/>
<path d="M542 231.007L540.716 229.746C530.258 242.986 512.461 247.609 492.83 247.609C467.144 247.609 438.156 240.043 417.424 234.58C405.682 231.428 396.509 229.116 392.105 229.116C394.307 227.225 398.527 224.913 403.847 222.181C408.067 220.08 413.204 217.348 418.525 213.986C459.255 188.768 474.667 160.609 474.667 132.87C474.667 89.7899 447.697 61 407.517 61C366.97 61 340 89.7899 340 132.87C340 165.022 358.714 195.072 394.857 209.152L398.343 207.051C368.805 192.341 355.962 163.341 355.962 132.87C355.962 88.7391 373.575 64.7826 406.783 64.7826C440.358 64.7826 458.705 88.7391 458.705 132.87C458.705 161.659 446.045 190.029 416.323 210.833C410.636 214.826 405.132 217.768 400.545 220.29C396.325 222.391 392.839 224.493 390.271 226.384C384.95 230.377 382.015 234.58 382.015 241.725C382.015 247.188 384.95 252.232 391.371 253.493L391.922 249.71C388.069 249.08 386.051 245.507 386.051 241.935C386.051 237.732 388.436 233.529 392.839 233.529C399.261 233.529 408.618 238.152 419.809 244.036C436.872 253.283 458.888 264 482.005 264C501.637 264 522.369 255.804 542 231.007Z" fill="white"/>
</g>
<defs>
<clipPath id="clip0_843_1607">
<rect width="635" height="260" rx="20" fill="white"/>
</clipPath>
</defs>
</svg>
