<svg width="635" height="260" viewBox="0 0 635 260" fill="none" xmlns="http://www.w3.org/2000/svg">
<g clip-path="url(#clip0_838_1324)">
<path d="M357.055 316.188C388.303 307.815 394.739 248.124 372.952 166.815C351.264 85.8731 315.845 37.3969 284.596 45.77C253.065 54.2189 246.63 113.91 268.318 194.851C290.105 276.16 325.523 324.637 357.055 316.188ZM355.704 309.452C329.263 316.537 302.505 273.232 278.845 184.932C257.65 105.831 260.071 59.4395 285.805 52.544C311.964 45.5349 338.962 89.1693 362.523 177.101C383.817 256.571 381.297 302.594 355.704 309.452Z" fill="#7752BB"/>
<path d="M656.807 266.958C688.056 258.585 694.491 198.894 672.704 117.585C651.016 36.6436 615.597 -11.8326 584.349 -3.45951C552.817 4.98936 546.382 64.6802 568.07 145.622C589.857 226.931 625.275 275.407 656.807 266.958ZM655.457 260.222C629.015 267.307 602.257 224.003 578.597 135.703C557.402 56.6011 559.823 10.21 585.557 3.31451C611.716 -3.69464 638.714 39.9398 662.276 127.872C683.569 207.341 681.049 253.365 655.457 260.222Z" fill="#7752BB"/>
<path d="M271.58 379.544C294.455 402.419 363.088 364.426 443.239 284.275C523.027 204.487 561.021 135.854 538.145 112.978C515.062 89.8957 446.43 127.889 366.641 207.677C286.491 287.828 248.497 356.461 271.58 379.544ZM278.418 373.326C259.062 353.97 295.133 297.196 382.175 210.155C460.15 132.18 512.364 100.254 531.203 119.092C550.352 138.242 514.022 195.481 427.343 282.16C349.005 360.498 297.154 392.061 278.418 373.326Z" fill="#7752BB"/>
</g>
<defs>
<clipPath id="clip0_838_1324">
<rect width="635" height="260" fill="white"/>
</clipPath>
</defs>
</svg>
