<svg width="635" height="260" viewBox="0 0 635 260" fill="none" xmlns="http://www.w3.org/2000/svg">
<g clip-path="url(#clip0_843_1615)">
<g clip-path="url(#clip1_843_1615)">
<path d="M361.372 189.593L318.864 277.242L320.627 278.17L330.657 258.06C332.431 254.157 335.701 247.415 336.922 244.028L337.969 244.176C337.135 247.364 337.282 255.1 337.993 257.49C343.246 274.768 350.169 285.669 363.828 292.865C393.131 308.299 424.926 296.025 442.876 261.948C463.65 222.507 453.191 191.604 442.557 164.237C433.017 140.67 424.467 118.432 438.262 92.2426C451.392 67.3157 468.453 58.9701 486.519 68.4861C508.33 79.9749 505.722 110.041 493.473 135.432L486.933 148.916L491.065 150.689L527.865 74.9477L525.662 73.7872L517.514 90.8585C515.408 95.392 513.8 98.9788 513.077 101.42L511.202 101.238C511.481 100.176 512.211 94.5144 511.5 92.1244C508.493 81.2697 502.729 69.7695 489.51 62.8065C463.292 48.9967 435.304 60.4544 419.183 91.0608C399.738 127.978 410.259 156.092 420.785 182.596C430.158 206.478 437.986 231.157 423.692 258.293C409.067 286.059 386.208 297.397 366.379 286.953C345.449 275.928 340.455 242.664 358.965 204.851L365.118 191.566L361.372 189.593Z" fill="white"/>
<path d="M519.372 189.593L476.864 277.242L478.627 278.17L488.657 258.06C490.431 254.157 493.701 247.415 494.922 244.028L495.969 244.176C495.135 247.364 495.282 255.1 495.993 257.49C501.246 274.768 508.169 285.669 521.828 292.865C551.131 308.299 582.926 296.025 600.876 261.948C621.65 222.507 611.191 191.604 600.557 164.237C591.017 140.67 582.467 118.432 596.262 92.2426C609.392 67.3157 626.453 58.9701 644.519 68.4861C666.33 79.9749 663.722 110.041 651.473 135.432L644.933 148.916L649.065 150.689L685.865 74.9477L683.662 73.7872L675.514 90.8585C673.408 95.392 671.8 98.9788 671.077 101.42L669.202 101.238C669.481 100.176 670.211 94.5144 669.5 92.1244C666.493 81.2697 660.729 69.7695 647.51 62.8065C621.292 48.9967 593.304 60.4544 577.183 91.0608C557.738 127.978 568.259 156.092 578.785 182.596C588.158 206.478 595.986 231.157 581.692 258.293C567.067 286.059 544.208 297.397 524.379 286.953C503.449 275.928 498.455 242.664 516.965 204.851L523.118 191.566L519.372 189.593Z" fill="white"/>
<path d="M655.372 59.3962L612.864 147.045L614.627 147.973L624.657 127.862C626.431 123.96 629.701 117.218 630.922 113.83L631.969 113.979C631.135 117.167 631.282 124.903 631.993 127.293C637.246 144.57 644.169 155.472 657.828 162.667C687.131 178.102 718.926 165.828 736.876 131.751C757.65 92.3094 747.191 61.4064 736.557 34.0394C727.017 10.4732 718.467 -11.7657 732.262 -37.9547C745.392 -62.8816 762.453 -71.2272 780.519 -61.7112C802.33 -50.2223 799.722 -20.1567 787.473 5.2344L780.933 18.7188L785.065 20.4921L821.865 -55.2496L819.662 -56.4101L811.514 -39.3388C809.408 -34.8053 807.8 -31.2184 807.077 -28.7776L805.202 -28.9589C805.481 -30.0216 806.211 -35.6829 805.5 -38.0729C802.493 -48.9276 796.729 -60.4278 783.51 -67.3907C757.292 -81.2006 729.304 -69.7429 713.183 -39.1364C693.738 -2.21941 704.259 25.8947 714.785 52.3985C724.158 76.2802 731.986 100.96 717.692 128.096C703.067 155.862 680.208 167.2 660.379 156.756C639.449 145.731 634.455 112.467 652.965 74.6539L659.118 61.369L655.372 59.3962Z" fill="white"/>
<path d="M479.448 65.3962L436.94 153.045L438.702 153.973L448.732 133.862C450.506 129.96 453.776 123.218 454.998 119.83L456.045 119.979C455.21 123.167 455.357 130.903 456.068 133.293C461.322 150.57 468.244 161.472 481.904 168.667C511.207 184.102 543.002 171.828 560.951 137.751C581.726 98.3094 571.266 67.4064 560.633 40.0394C551.093 16.4732 542.543 -5.76569 556.337 -31.9547C569.467 -56.8816 586.528 -65.2272 604.594 -55.7112C626.406 -44.2223 623.797 -14.1567 611.549 11.2344L605.009 24.7188L609.141 26.4921L645.941 -49.2496L643.737 -50.4101L635.59 -33.3388C633.483 -28.8053 631.875 -25.2184 631.153 -22.7776L629.278 -22.9589C629.556 -24.0216 630.287 -29.6829 629.576 -32.0729C626.568 -42.9276 620.805 -54.4278 607.586 -61.3907C581.368 -75.2006 553.38 -63.7429 537.259 -33.1364C517.813 3.78059 528.335 31.8947 538.86 58.3985C548.234 82.2802 556.061 106.96 541.768 134.096C527.143 161.862 504.284 173.2 484.455 162.756C463.525 151.731 458.53 118.467 477.04 80.6539L483.194 67.369L479.448 65.3962Z" fill="white"/>
</g>
</g>
<defs>
<clipPath id="clip0_843_1615">
<rect width="635" height="260" fill="white"/>
</clipPath>
<clipPath id="clip1_843_1615">
<rect width="420" height="408" fill="white" transform="translate(247 -112)"/>
</clipPath>
</defs>
</svg>
