<svg width="1465" height="870" viewBox="0 0 1465 870" fill="none" xmlns="http://www.w3.org/2000/svg">
<mask id="path-1-outside-1_819_828" maskUnits="userSpaceOnUse" x="0" y="0" width="1465" height="870" fill="black">
<rect fill="white" width="1465" height="870"/>
<path d="M1462 442.316C1462 317.685 1452.37 217.373 1433.12 141.378C1413.87 64.6241 1388.57 26.5307 1357.08 26.5307C1335.42 26.5307 1317 50.5652 1301.95 99.2016C1300.55 104.521 1299.45 112.121 1298.64 122L1296.54 119.72C1296.94 112.121 1297.24 101.101 1297.44 86.6625L1298.04 3.44867H1295.34L1292.63 332.884L1298.04 334.024L1298.95 228.012C1299.75 177.856 1306.27 133.712 1318.5 97.9949C1330.53 62.2775 1344.17 37.1786 1359.41 37.1786C1384.08 37.1786 1402.94 85.1634 1415.97 149.759C1428.81 214.354 1435.23 300.967 1435.23 424.077C1435.23 560.107 1428.51 665.426 1415.07 737.621C1401.43 809.056 1381.78 864.08 1356.1 864.08C1341.46 864.08 1327.93 850.021 1315.49 821.904C1303.06 793.786 1294.33 735.274 1289.32 687.398L1284.2 695.377C1289.82 750.093 1299.25 791.89 1312.48 820.768C1325.52 849.646 1340.26 867 1356.71 867C1388.19 867 1413.67 825.328 1433.12 747.813C1452.37 670.299 1462 568.467 1462 442.316Z"/>
<path d="M1161.36 867C1194.85 867 1221.83 825.708 1242.28 748.953C1262.74 672.199 1272.97 570.747 1272.97 444.596C1272.97 319.205 1262.74 218.133 1242.28 141.378C1221.83 64.6241 1194.85 26.247 1161.36 26.247C1128.07 26.247 1101.29 64.6241 1081.03 141.378C1060.58 218.133 1050.35 319.205 1050.35 444.596C1050.35 570.747 1060.58 672.199 1081.03 748.953C1101.29 825.708 1128.07 867 1161.36 867ZM1160.46 862.874C1133.18 862.874 1112.42 830.576 1098.18 765.981C1083.74 701.386 1076.52 588.605 1076.52 466.254C1076.52 330.224 1083.94 209.598 1098.78 138.164C1113.42 65.9689 1134.68 29.8716 1162.56 29.8716C1190.04 29.8716 1211 62.1692 1225.44 126.764C1239.68 191.36 1246.8 301.727 1246.8 424.077C1246.8 560.107 1239.48 683.527 1224.84 755.722C1209.99 827.156 1188.53 862.874 1160.46 862.874Z"/>
<path d="M1357.01 26.6205H996.884V36.8798H1020.05V39.1596C1016.64 43.7193 1013.53 61.198 1010.72 91.5957L941.529 735.274C939.925 749.713 939.123 763.392 939.123 776.311H935.212C935.212 763.392 934.209 748.193 932.203 730.715L864.815 107.555C863.411 96.1554 862.709 85.5161 862.709 75.6369C862.709 49.7988 867.623 36.8798 877.45 36.8798H903.323V26.6205H731.73V36.8798H841.35C845.762 36.8798 849.071 41.8194 851.277 51.6987C853.283 60.818 855.79 79.4366 858.798 107.555L937.962 866.682H954.465L1034.19 107.555C1037.2 78.6767 1039.8 59.6781 1042.01 50.5588C1044.02 41.4394 1047.32 36.8798 1051.94 36.8798H1357.01V26.6205Z"/>
<path d="M815.783 410.398C815.783 414.958 815.783 419.518 815.783 424.077C815.783 558.587 808.262 680.42 793.22 753.375C777.978 825.57 757.32 861.667 731.247 861.667C711.191 861.667 693.442 846.468 677.999 816.07C662.556 784.913 650.422 723.115 641.597 666.88L637.385 679.419C646.812 737.934 659.748 783.531 676.194 816.208C692.439 848.126 711.091 867 732.15 867C764.039 867 790.412 825.328 811.27 747.813C832.129 669.539 842.558 567.707 842.558 442.316C842.558 317.685 832.43 217.373 812.173 141.378C791.716 64.6241 764.841 27.4537 731.548 27.4537C704.673 27.4537 681.91 58.5446 663.258 123.14C644.606 187.735 635.28 270.569 635.28 371.641V377.341C635.28 386.46 636.182 394.44 637.987 401.279C639.792 407.359 641.998 410.398 644.606 410.398H815.783ZM815.482 409.187L664.461 402.415C662.856 402.415 662.054 378.481 662.054 371.641C662.054 274.369 668.572 186.441 681.609 127.165C694.445 67.1296 711.492 37.1118 732.751 37.1118C758.423 37.1118 778.379 66.3696 792.619 124.885C806.658 183.401 814.279 297.476 815.482 409.187Z"/>
<path d="M625.975 866.627V856.367H615.445C608.225 856.367 603.813 853.327 602.208 847.248C600.403 840.408 599.501 823.31 599.501 795.952V97.2953C599.501 69.9373 600.403 53.2186 602.208 47.139C603.813 40.2995 608.225 36.8798 615.445 36.8798H731.984V26.6205H547.456C523.388 26.6205 504.035 49.7988 489.394 96.1554C474.753 142.512 467.432 212.433 467.432 288.428C467.432 356.822 473.449 413.438 485.483 458.275C497.516 503.112 512.759 528.57 531.21 534.649L537.227 535.789V542.629C522.787 548.708 511.656 574.926 503.834 621.283L488.792 711.336C475.756 788.85 465.928 827.608 459.31 827.608C456.301 827.608 453.393 823.428 450.585 815.069L443.967 793.41L442.463 801.39L449.081 823.048C458.106 851.926 466.43 866.365 474.051 866.365C477.661 866.365 481.171 863.325 484.58 857.245C487.789 851.926 490.998 842.806 494.207 829.887C497.215 816.968 499.722 805.569 501.728 795.69C503.734 785.051 506.241 770.612 509.249 752.373L530.308 629.262C535.923 596.585 540.737 573.786 544.748 560.867C548.759 547.948 562.617 541.489 568.834 541.489H572.444V522.11H558.605C540.354 522.11 517.673 502.352 508.046 462.835C498.419 422.558 493.605 364.422 493.605 288.428C493.605 213.193 498.419 147.072 508.046 107.555C517.673 67.2775 531.611 47.139 549.862 47.139H581.15V48.2789C577.74 61.198 576.035 80.9565 576.035 107.555V795.952C576.035 823.31 575.133 840.408 573.328 847.248C571.523 853.327 567.01 856.367 559.79 856.367H542.341V866.627H625.975Z"/>
<path d="M372.717 26.6205H296.003V36.8798H309.24C316.46 36.8798 320.973 40.2995 322.778 47.139C324.383 53.2186 325.185 69.9373 325.185 97.2953V709.056C325.185 753.133 322.076 805.878 315.859 828.676C309.641 851.474 300.616 862.874 288.783 862.874C272.738 862.874 260.504 848.055 252.081 818.417C243.457 788.019 239.145 725.015 239.145 668.019V117.814C239.145 88.176 240.348 67.2775 242.755 55.1185C244.961 42.9593 249.474 36.8798 256.293 36.8798H267.424V26.6205H208.76V36.8798H216.582C223.401 36.8798 228.014 42.9593 230.42 55.1185C232.627 67.2775 233.73 88.176 233.73 117.814V668.019C233.73 731.855 238.443 780.491 247.869 813.929C257.295 847.366 270.933 867 288.783 867C306.834 867 321.374 846.226 332.405 810.509C343.235 774.031 348.65 726.535 348.65 668.019V97.2953C348.65 69.9373 349.553 53.2186 351.358 47.139C353.163 40.2995 357.675 36.8798 364.896 36.8798H372.717V26.6205Z"/>
<path d="M159.399 48.2789V53.9785C155.989 71.4572 154.285 95.0155 154.285 124.653V515.271H137.438C118.384 515.271 103.944 495.892 94.1167 457.135C84.0887 417.618 79.0747 360.622 79.0747 286.148C79.0747 211.673 84.0887 146.312 94.1167 107.555C103.944 68.0375 118.384 48.2789 137.438 48.2789H159.399ZM204.224 866.627V856.367H193.695C186.474 856.367 182.062 853.327 180.457 847.248C178.652 840.408 177.75 823.31 177.75 795.952V97.2953C177.75 69.9373 178.652 53.2186 180.457 47.139C182.062 40.2995 186.474 36.8798 193.695 36.8798H204.224V26.6205H128.412C105.749 26.6205 87.4981 49.7988 73.6595 96.1554C59.8209 141.752 52.9017 210.913 52.9017 286.148C52.9017 361.382 59.8209 421.798 73.6595 467.394C87.4981 512.991 105.749 535.789 128.412 535.789H154.285V795.952C154.285 823.31 153.382 840.408 151.577 847.248C149.772 853.327 145.259 856.367 138.039 856.367H130.518V866.627H204.224Z"/>
<path d="M27.0671 13.2592C27.0671 6.41975 23.5573 3 16.5377 3C9.31754 3 5.70761 6.41975 5.70761 13.2592C5.70761 87.7338 7.0111 195.714 9.61837 322.625C12.2256 448.776 13.5293 548.708 13.5293 622.423H15.6657C15.6657 547.948 20.3484 447.636 23.1562 321.485C25.7635 195.334 27.0671 87.7338 27.0671 13.2592ZM16.5377 763.772C12.5265 763.772 9.31744 768.332 6.91073 777.451C4.30346 786.571 2.99996 799.11 2.99996 815.069C2.99996 830.267 4.20336 842.426 6.61007 851.546C9.01679 860.665 12.3259 866.682 16.5377 866.682C20.5489 866.682 23.758 861.045 26.1648 852.686C28.5715 843.566 29.7746 831.027 29.7746 815.069C29.7746 799.87 28.6716 787.711 26.4654 778.591C24.0587 768.712 20.7494 763.772 16.5377 763.772Z"/>
</mask>
<path d="M1462 442.316C1462 317.685 1452.37 217.373 1433.12 141.378C1413.87 64.6241 1388.57 26.5307 1357.08 26.5307C1335.42 26.5307 1317 50.5652 1301.95 99.2016C1300.55 104.521 1299.45 112.121 1298.64 122L1296.54 119.72C1296.94 112.121 1297.24 101.101 1297.44 86.6625L1298.04 3.44867H1295.34L1292.63 332.884L1298.04 334.024L1298.95 228.012C1299.75 177.856 1306.27 133.712 1318.5 97.9949C1330.53 62.2775 1344.17 37.1786 1359.41 37.1786C1384.08 37.1786 1402.94 85.1634 1415.97 149.759C1428.81 214.354 1435.23 300.967 1435.23 424.077C1435.23 560.107 1428.51 665.426 1415.07 737.621C1401.43 809.056 1381.78 864.08 1356.1 864.08C1341.46 864.08 1327.93 850.021 1315.49 821.904C1303.06 793.786 1294.33 735.274 1289.32 687.398L1284.2 695.377C1289.82 750.093 1299.25 791.89 1312.48 820.768C1325.52 849.646 1340.26 867 1356.71 867C1388.19 867 1413.67 825.328 1433.12 747.813C1452.37 670.299 1462 568.467 1462 442.316Z" fill="#191919"/>
<path d="M1161.36 867C1194.85 867 1221.83 825.708 1242.28 748.953C1262.74 672.199 1272.97 570.747 1272.97 444.596C1272.97 319.205 1262.74 218.133 1242.28 141.378C1221.83 64.6241 1194.85 26.247 1161.36 26.247C1128.07 26.247 1101.29 64.6241 1081.03 141.378C1060.58 218.133 1050.35 319.205 1050.35 444.596C1050.35 570.747 1060.58 672.199 1081.03 748.953C1101.29 825.708 1128.07 867 1161.36 867ZM1160.46 862.874C1133.18 862.874 1112.42 830.576 1098.18 765.981C1083.74 701.386 1076.52 588.605 1076.52 466.254C1076.52 330.224 1083.94 209.598 1098.78 138.164C1113.42 65.9689 1134.68 29.8716 1162.56 29.8716C1190.04 29.8716 1211 62.1692 1225.44 126.764C1239.68 191.36 1246.8 301.727 1246.8 424.077C1246.8 560.107 1239.48 683.527 1224.84 755.722C1209.99 827.156 1188.53 862.874 1160.46 862.874Z" fill="#191919"/>
<path d="M1357.01 26.6205H996.884V36.8798H1020.05V39.1596C1016.64 43.7193 1013.53 61.198 1010.72 91.5957L941.529 735.274C939.925 749.713 939.123 763.392 939.123 776.311H935.212C935.212 763.392 934.209 748.193 932.203 730.715L864.815 107.555C863.411 96.1554 862.709 85.5161 862.709 75.6369C862.709 49.7988 867.623 36.8798 877.45 36.8798H903.323V26.6205H731.73V36.8798H841.35C845.762 36.8798 849.071 41.8194 851.277 51.6987C853.283 60.818 855.79 79.4366 858.798 107.555L937.962 866.682H954.465L1034.19 107.555C1037.2 78.6767 1039.8 59.6781 1042.01 50.5588C1044.02 41.4394 1047.32 36.8798 1051.94 36.8798H1357.01V26.6205Z" fill="#191919"/>
<path d="M815.783 410.398C815.783 414.958 815.783 419.518 815.783 424.077C815.783 558.587 808.262 680.42 793.22 753.375C777.978 825.57 757.32 861.667 731.247 861.667C711.191 861.667 693.442 846.468 677.999 816.07C662.556 784.913 650.422 723.115 641.597 666.88L637.385 679.419C646.812 737.934 659.748 783.531 676.194 816.208C692.439 848.126 711.091 867 732.15 867C764.039 867 790.412 825.328 811.27 747.813C832.129 669.539 842.558 567.707 842.558 442.316C842.558 317.685 832.43 217.373 812.173 141.378C791.716 64.6241 764.841 27.4537 731.548 27.4537C704.673 27.4537 681.91 58.5446 663.258 123.14C644.606 187.735 635.28 270.569 635.28 371.641V377.341C635.28 386.46 636.182 394.44 637.987 401.279C639.792 407.359 641.998 410.398 644.606 410.398H815.783ZM815.482 409.187L664.461 402.415C662.856 402.415 662.054 378.481 662.054 371.641C662.054 274.369 668.572 186.441 681.609 127.165C694.445 67.1296 711.492 37.1118 732.751 37.1118C758.423 37.1118 778.379 66.3696 792.619 124.885C806.658 183.401 814.279 297.476 815.482 409.187Z" fill="#191919"/>
<path d="M625.975 866.627V856.367H615.445C608.225 856.367 603.813 853.327 602.208 847.248C600.403 840.408 599.501 823.31 599.501 795.952V97.2953C599.501 69.9373 600.403 53.2186 602.208 47.139C603.813 40.2995 608.225 36.8798 615.445 36.8798H731.984V26.6205H547.456C523.388 26.6205 504.035 49.7988 489.394 96.1554C474.753 142.512 467.432 212.433 467.432 288.428C467.432 356.822 473.449 413.438 485.483 458.275C497.516 503.112 512.759 528.57 531.21 534.649L537.227 535.789V542.629C522.787 548.708 511.656 574.926 503.834 621.283L488.792 711.336C475.756 788.85 465.928 827.608 459.31 827.608C456.301 827.608 453.393 823.428 450.585 815.069L443.967 793.41L442.463 801.39L449.081 823.048C458.106 851.926 466.43 866.365 474.051 866.365C477.661 866.365 481.171 863.325 484.58 857.245C487.789 851.926 490.998 842.806 494.207 829.887C497.215 816.968 499.722 805.569 501.728 795.69C503.734 785.051 506.241 770.612 509.249 752.373L530.308 629.262C535.923 596.585 540.737 573.786 544.748 560.867C548.759 547.948 562.617 541.489 568.834 541.489H572.444V522.11H558.605C540.354 522.11 517.673 502.352 508.046 462.835C498.419 422.558 493.605 364.422 493.605 288.428C493.605 213.193 498.419 147.072 508.046 107.555C517.673 67.2775 531.611 47.139 549.862 47.139H581.15V48.2789C577.74 61.198 576.035 80.9565 576.035 107.555V795.952C576.035 823.31 575.133 840.408 573.328 847.248C571.523 853.327 567.01 856.367 559.79 856.367H542.341V866.627H625.975Z" fill="#191919"/>
<path d="M372.717 26.6205H296.003V36.8798H309.24C316.46 36.8798 320.973 40.2995 322.778 47.139C324.383 53.2186 325.185 69.9373 325.185 97.2953V709.056C325.185 753.133 322.076 805.878 315.859 828.676C309.641 851.474 300.616 862.874 288.783 862.874C272.738 862.874 260.504 848.055 252.081 818.417C243.457 788.019 239.145 725.015 239.145 668.019V117.814C239.145 88.176 240.348 67.2775 242.755 55.1185C244.961 42.9593 249.474 36.8798 256.293 36.8798H267.424V26.6205H208.76V36.8798H216.582C223.401 36.8798 228.014 42.9593 230.42 55.1185C232.627 67.2775 233.73 88.176 233.73 117.814V668.019C233.73 731.855 238.443 780.491 247.869 813.929C257.295 847.366 270.933 867 288.783 867C306.834 867 321.374 846.226 332.405 810.509C343.235 774.031 348.65 726.535 348.65 668.019V97.2953C348.65 69.9373 349.553 53.2186 351.358 47.139C353.163 40.2995 357.675 36.8798 364.896 36.8798H372.717V26.6205Z" fill="#191919"/>
<path d="M159.399 48.2789V53.9785C155.989 71.4572 154.285 95.0155 154.285 124.653V515.271H137.438C118.384 515.271 103.944 495.892 94.1167 457.135C84.0887 417.618 79.0747 360.622 79.0747 286.148C79.0747 211.673 84.0887 146.312 94.1167 107.555C103.944 68.0375 118.384 48.2789 137.438 48.2789H159.399ZM204.224 866.627V856.367H193.695C186.474 856.367 182.062 853.327 180.457 847.248C178.652 840.408 177.75 823.31 177.75 795.952V97.2953C177.75 69.9373 178.652 53.2186 180.457 47.139C182.062 40.2995 186.474 36.8798 193.695 36.8798H204.224V26.6205H128.412C105.749 26.6205 87.4981 49.7988 73.6595 96.1554C59.8209 141.752 52.9017 210.913 52.9017 286.148C52.9017 361.382 59.8209 421.798 73.6595 467.394C87.4981 512.991 105.749 535.789 128.412 535.789H154.285V795.952C154.285 823.31 153.382 840.408 151.577 847.248C149.772 853.327 145.259 856.367 138.039 856.367H130.518V866.627H204.224Z" fill="#191919"/>
<path d="M27.0671 13.2592C27.0671 6.41975 23.5573 3 16.5377 3C9.31754 3 5.70761 6.41975 5.70761 13.2592C5.70761 87.7338 7.0111 195.714 9.61837 322.625C12.2256 448.776 13.5293 548.708 13.5293 622.423H15.6657C15.6657 547.948 20.3484 447.636 23.1562 321.485C25.7635 195.334 27.0671 87.7338 27.0671 13.2592ZM16.5377 763.772C12.5265 763.772 9.31744 768.332 6.91073 777.451C4.30346 786.571 2.99996 799.11 2.99996 815.069C2.99996 830.267 4.20336 842.426 6.61007 851.546C9.01679 860.665 12.3259 866.682 16.5377 866.682C20.5489 866.682 23.758 861.045 26.1648 852.686C28.5715 843.566 29.7746 831.027 29.7746 815.069C29.7746 799.87 28.6716 787.711 26.4654 778.591C24.0587 768.712 20.7494 763.772 16.5377 763.772Z" fill="#191919"/>
<path d="M1462 442.316C1462 317.685 1452.37 217.373 1433.12 141.378C1413.87 64.6241 1388.57 26.5307 1357.08 26.5307C1335.42 26.5307 1317 50.5652 1301.95 99.2016C1300.55 104.521 1299.45 112.121 1298.64 122L1296.54 119.72C1296.94 112.121 1297.24 101.101 1297.44 86.6625L1298.04 3.44867H1295.34L1292.63 332.884L1298.04 334.024L1298.95 228.012C1299.75 177.856 1306.27 133.712 1318.5 97.9949C1330.53 62.2775 1344.17 37.1786 1359.41 37.1786C1384.08 37.1786 1402.94 85.1634 1415.97 149.759C1428.81 214.354 1435.23 300.967 1435.23 424.077C1435.23 560.107 1428.51 665.426 1415.07 737.621C1401.43 809.056 1381.78 864.08 1356.1 864.08C1341.46 864.08 1327.93 850.021 1315.49 821.904C1303.06 793.786 1294.33 735.274 1289.32 687.398L1284.2 695.377C1289.82 750.093 1299.25 791.89 1312.48 820.768C1325.52 849.646 1340.26 867 1356.71 867C1388.19 867 1413.67 825.328 1433.12 747.813C1452.37 670.299 1462 568.467 1462 442.316Z" stroke="#191919" stroke-width="5" mask="url(#path-1-outside-1_819_828)"/>
<path d="M1161.36 867C1194.85 867 1221.83 825.708 1242.28 748.953C1262.74 672.199 1272.97 570.747 1272.97 444.596C1272.97 319.205 1262.74 218.133 1242.28 141.378C1221.83 64.6241 1194.85 26.247 1161.36 26.247C1128.07 26.247 1101.29 64.6241 1081.03 141.378C1060.58 218.133 1050.35 319.205 1050.35 444.596C1050.35 570.747 1060.58 672.199 1081.03 748.953C1101.29 825.708 1128.07 867 1161.36 867ZM1160.46 862.874C1133.18 862.874 1112.42 830.576 1098.18 765.981C1083.74 701.386 1076.52 588.605 1076.52 466.254C1076.52 330.224 1083.94 209.598 1098.78 138.164C1113.42 65.9689 1134.68 29.8716 1162.56 29.8716C1190.04 29.8716 1211 62.1692 1225.44 126.764C1239.68 191.36 1246.8 301.727 1246.8 424.077C1246.8 560.107 1239.48 683.527 1224.84 755.722C1209.99 827.156 1188.53 862.874 1160.46 862.874Z" stroke="#191919" stroke-width="5" mask="url(#path-1-outside-1_819_828)"/>
<path d="M1357.01 26.6205H996.884V36.8798H1020.05V39.1596C1016.64 43.7193 1013.53 61.198 1010.72 91.5957L941.529 735.274C939.925 749.713 939.123 763.392 939.123 776.311H935.212C935.212 763.392 934.209 748.193 932.203 730.715L864.815 107.555C863.411 96.1554 862.709 85.5161 862.709 75.6369C862.709 49.7988 867.623 36.8798 877.45 36.8798H903.323V26.6205H731.73V36.8798H841.35C845.762 36.8798 849.071 41.8194 851.277 51.6987C853.283 60.818 855.79 79.4366 858.798 107.555L937.962 866.682H954.465L1034.19 107.555C1037.2 78.6767 1039.8 59.6781 1042.01 50.5588C1044.02 41.4394 1047.32 36.8798 1051.94 36.8798H1357.01V26.6205Z" stroke="#191919" stroke-width="5" mask="url(#path-1-outside-1_819_828)"/>
<path d="M815.783 410.398C815.783 414.958 815.783 419.518 815.783 424.077C815.783 558.587 808.262 680.42 793.22 753.375C777.978 825.57 757.32 861.667 731.247 861.667C711.191 861.667 693.442 846.468 677.999 816.07C662.556 784.913 650.422 723.115 641.597 666.88L637.385 679.419C646.812 737.934 659.748 783.531 676.194 816.208C692.439 848.126 711.091 867 732.15 867C764.039 867 790.412 825.328 811.27 747.813C832.129 669.539 842.558 567.707 842.558 442.316C842.558 317.685 832.43 217.373 812.173 141.378C791.716 64.6241 764.841 27.4537 731.548 27.4537C704.673 27.4537 681.91 58.5446 663.258 123.14C644.606 187.735 635.28 270.569 635.28 371.641V377.341C635.28 386.46 636.182 394.44 637.987 401.279C639.792 407.359 641.998 410.398 644.606 410.398H815.783ZM815.482 409.187L664.461 402.415C662.856 402.415 662.054 378.481 662.054 371.641C662.054 274.369 668.572 186.441 681.609 127.165C694.445 67.1296 711.492 37.1118 732.751 37.1118C758.423 37.1118 778.379 66.3696 792.619 124.885C806.658 183.401 814.279 297.476 815.482 409.187Z" stroke="#191919" stroke-width="5" mask="url(#path-1-outside-1_819_828)"/>
<path d="M625.975 866.627V856.367H615.445C608.225 856.367 603.813 853.327 602.208 847.248C600.403 840.408 599.501 823.31 599.501 795.952V97.2953C599.501 69.9373 600.403 53.2186 602.208 47.139C603.813 40.2995 608.225 36.8798 615.445 36.8798H731.984V26.6205H547.456C523.388 26.6205 504.035 49.7988 489.394 96.1554C474.753 142.512 467.432 212.433 467.432 288.428C467.432 356.822 473.449 413.438 485.483 458.275C497.516 503.112 512.759 528.57 531.21 534.649L537.227 535.789V542.629C522.787 548.708 511.656 574.926 503.834 621.283L488.792 711.336C475.756 788.85 465.928 827.608 459.31 827.608C456.301 827.608 453.393 823.428 450.585 815.069L443.967 793.41L442.463 801.39L449.081 823.048C458.106 851.926 466.43 866.365 474.051 866.365C477.661 866.365 481.171 863.325 484.58 857.245C487.789 851.926 490.998 842.806 494.207 829.887C497.215 816.968 499.722 805.569 501.728 795.69C503.734 785.051 506.241 770.612 509.249 752.373L530.308 629.262C535.923 596.585 540.737 573.786 544.748 560.867C548.759 547.948 562.617 541.489 568.834 541.489H572.444V522.11H558.605C540.354 522.11 517.673 502.352 508.046 462.835C498.419 422.558 493.605 364.422 493.605 288.428C493.605 213.193 498.419 147.072 508.046 107.555C517.673 67.2775 531.611 47.139 549.862 47.139H581.15V48.2789C577.74 61.198 576.035 80.9565 576.035 107.555V795.952C576.035 823.31 575.133 840.408 573.328 847.248C571.523 853.327 567.01 856.367 559.79 856.367H542.341V866.627H625.975Z" stroke="#191919" stroke-width="5" mask="url(#path-1-outside-1_819_828)"/>
<path d="M372.717 26.6205H296.003V36.8798H309.24C316.46 36.8798 320.973 40.2995 322.778 47.139C324.383 53.2186 325.185 69.9373 325.185 97.2953V709.056C325.185 753.133 322.076 805.878 315.859 828.676C309.641 851.474 300.616 862.874 288.783 862.874C272.738 862.874 260.504 848.055 252.081 818.417C243.457 788.019 239.145 725.015 239.145 668.019V117.814C239.145 88.176 240.348 67.2775 242.755 55.1185C244.961 42.9593 249.474 36.8798 256.293 36.8798H267.424V26.6205H208.76V36.8798H216.582C223.401 36.8798 228.014 42.9593 230.42 55.1185C232.627 67.2775 233.73 88.176 233.73 117.814V668.019C233.73 731.855 238.443 780.491 247.869 813.929C257.295 847.366 270.933 867 288.783 867C306.834 867 321.374 846.226 332.405 810.509C343.235 774.031 348.65 726.535 348.65 668.019V97.2953C348.65 69.9373 349.553 53.2186 351.358 47.139C353.163 40.2995 357.675 36.8798 364.896 36.8798H372.717V26.6205Z" stroke="#191919" stroke-width="5" mask="url(#path-1-outside-1_819_828)"/>
<path d="M159.399 48.2789V53.9785C155.989 71.4572 154.285 95.0155 154.285 124.653V515.271H137.438C118.384 515.271 103.944 495.892 94.1167 457.135C84.0887 417.618 79.0747 360.622 79.0747 286.148C79.0747 211.673 84.0887 146.312 94.1167 107.555C103.944 68.0375 118.384 48.2789 137.438 48.2789H159.399ZM204.224 866.627V856.367H193.695C186.474 856.367 182.062 853.327 180.457 847.248C178.652 840.408 177.75 823.31 177.75 795.952V97.2953C177.75 69.9373 178.652 53.2186 180.457 47.139C182.062 40.2995 186.474 36.8798 193.695 36.8798H204.224V26.6205H128.412C105.749 26.6205 87.4981 49.7988 73.6595 96.1554C59.8209 141.752 52.9017 210.913 52.9017 286.148C52.9017 361.382 59.8209 421.798 73.6595 467.394C87.4981 512.991 105.749 535.789 128.412 535.789H154.285V795.952C154.285 823.31 153.382 840.408 151.577 847.248C149.772 853.327 145.259 856.367 138.039 856.367H130.518V866.627H204.224Z" stroke="#191919" stroke-width="5" mask="url(#path-1-outside-1_819_828)"/>
<path d="M27.0671 13.2592C27.0671 6.41975 23.5573 3 16.5377 3C9.31754 3 5.70761 6.41975 5.70761 13.2592C5.70761 87.7338 7.0111 195.714 9.61837 322.625C12.2256 448.776 13.5293 548.708 13.5293 622.423H15.6657C15.6657 547.948 20.3484 447.636 23.1562 321.485C25.7635 195.334 27.0671 87.7338 27.0671 13.2592ZM16.5377 763.772C12.5265 763.772 9.31744 768.332 6.91073 777.451C4.30346 786.571 2.99996 799.11 2.99996 815.069C2.99996 830.267 4.20336 842.426 6.61007 851.546C9.01679 860.665 12.3259 866.682 16.5377 866.682C20.5489 866.682 23.758 861.045 26.1648 852.686C28.5715 843.566 29.7746 831.027 29.7746 815.069C29.7746 799.87 28.6716 787.711 26.4654 778.591C24.0587 768.712 20.7494 763.772 16.5377 763.772Z" stroke="#191919" stroke-width="5" mask="url(#path-1-outside-1_819_828)"/>
</svg>
