<svg width="1280" height="260" viewBox="0 0 1280 260" fill="none" xmlns="http://www.w3.org/2000/svg">
<g clip-path="url(#clip0_879_1149)">
<g clip-path="url(#clip1_879_1149)">
<path d="M175.352 19.9532L263.822 19.9531L263.822 22.6569L254.471 22.6569C237.209 22.6569 235.051 26.8628 235.051 41.2828L235.051 230.546L333.591 230.546L333.591 41.2828C333.591 26.8627 331.792 22.6569 314.53 22.6569L304.82 22.6569L304.82 19.9531L393.649 19.9531L393.649 22.6569L380.703 22.6569C363.44 22.6569 361.642 26.8627 361.642 41.2828L361.642 214.623C361.642 229.044 363.44 233.249 380.703 233.249L393.649 233.249L393.649 235.953L175.352 235.953L175.352 233.249L187.939 233.249C205.201 233.249 206.999 229.044 206.999 214.623L206.999 41.2828C206.999 26.8628 205.201 22.6569 187.939 22.6569L175.352 22.6569L175.352 19.9532Z" fill="#DCE3DF"/>
<path d="M1104.65 19.9532L1016.18 19.9531L1016.18 22.6569L1025.53 22.6569C1042.79 22.6569 1044.95 26.8628 1044.95 41.2828L1044.95 230.546L946.409 230.546L946.409 41.2828C946.409 26.8627 948.208 22.6569 965.47 22.6569L975.18 22.6569L975.18 19.9531L886.351 19.9531L886.351 22.6569L899.297 22.6569C916.56 22.6569 918.358 26.8627 918.358 41.2828L918.358 214.623C918.358 229.044 916.56 233.249 899.297 233.249L886.351 233.249L886.351 235.953L1104.65 235.953L1104.65 233.249L1092.06 233.249C1074.8 233.249 1073 229.044 1073 214.623L1073 41.2828C1073 26.8628 1074.8 22.6569 1092.06 22.6569L1104.65 22.6569L1104.65 19.9532Z" fill="#DCE3DF"/>
<path d="M875.385 235.953H711.18V233.249H796.265C813.528 233.249 815.686 229.043 815.686 214.623V39.3607C815.686 31.6287 809.417 25.3606 801.686 25.3606H682.409V214.623V233.249H701.47H711.18V235.953H622.351V233.249H635.297H654.358V214.623V41.2828V22.6569H635.297H622.351V19.9531H875.385V22.6569H862.798C845.535 22.6569 843.737 26.8627 843.737 41.2828V214.623C843.737 229.043 845.535 233.249 862.798 233.249H875.385V235.953Z" fill="#DCE3DF"/>
<path d="M409.352 235.953H573.556V233.249H488.471C471.209 233.249 469.051 229.043 469.051 214.623V39.3607C469.051 31.6287 475.319 25.3606 483.051 25.3606H602.327V214.623V233.249H583.266H573.556V235.953H662.386V233.249H649.439H630.378V214.623V41.2828V24.6569H649.439H662.386V19.9531H409.352V22.6569H421.939C439.201 22.6569 440.999 26.8627 440.999 41.2828V214.623C440.999 229.043 439.201 233.249 421.939 233.249H409.352V235.953Z" fill="#DCE3DF"/>
<rect x="696.352" y="72.5" width="28" height="106" transform="rotate(-90 696.352 72.5)" fill="#DCE3DF"/>
<rect x="696.352" y="107.5" width="35" height="67" transform="rotate(-90 696.352 107.5)" fill="#DCE3DF"/>
<rect x="502.352" y="167.5" width="88" height="67" transform="rotate(-90 502.352 167.5)" fill="#DCE3DF"/>
</g>
<g clip-path="url(#clip2_879_1149)">
<path d="M175.352 19.9532L263.822 19.9531L263.822 22.6569L254.471 22.6569C237.209 22.6569 235.051 26.8628 235.051 41.2828L235.051 230.546L333.591 230.546L333.591 41.2828C333.591 26.8627 331.792 22.6569 314.53 22.6569L304.82 22.6569L304.82 19.9531L393.649 19.9531L393.649 22.6569L380.703 22.6569C363.44 22.6569 361.642 26.8627 361.642 41.2828L361.642 214.623C361.642 229.044 363.44 233.249 380.703 233.249L393.649 233.249L393.649 235.953L175.352 235.953L175.352 233.249L187.939 233.249C205.201 233.249 206.999 229.044 206.999 214.623L206.999 41.2828C206.999 26.8628 205.201 22.6569 187.939 22.6569L175.352 22.6569L175.352 19.9532Z" fill="#DCE3DF"/>
<path d="M1104.65 19.9532L1016.18 19.9531L1016.18 22.6569L1025.53 22.6569C1042.79 22.6569 1044.95 26.8628 1044.95 41.2828L1044.95 230.546L946.409 230.546L946.409 41.2828C946.409 26.8627 948.208 22.6569 965.47 22.6569L975.18 22.6569L975.18 19.9531L886.351 19.9531L886.351 22.6569L899.297 22.6569C916.56 22.6569 918.358 26.8627 918.358 41.2828L918.358 214.623C918.358 229.044 916.56 233.249 899.297 233.249L886.351 233.249L886.351 235.953L1104.65 235.953L1104.65 233.249L1092.06 233.249C1074.8 233.249 1073 229.044 1073 214.623L1073 41.2828C1073 26.8628 1074.8 22.6569 1092.06 22.6569L1104.65 22.6569L1104.65 19.9532Z" fill="#DCE3DF"/>
<path d="M875.385 235.953H711.18V233.249H796.265C813.528 233.249 815.686 229.043 815.686 214.623V39.3607C815.686 31.6287 809.417 25.3606 801.686 25.3606H682.409V214.623V233.249H701.47H711.18V235.953H622.351V233.249H635.297H654.358V214.623V41.2828V22.6569H635.297H622.351V19.9531H875.385V22.6569H862.798C845.535 22.6569 843.737 26.8627 843.737 41.2828V214.623C843.737 229.043 845.535 233.249 862.798 233.249H875.385V235.953Z" fill="#DCE3DF"/>
<path d="M409.352 235.953H573.556V233.249H488.471C471.209 233.249 469.051 229.043 469.051 214.623V39.3607C469.051 31.6287 475.319 25.3606 483.051 25.3606H602.327V214.623V233.249H583.266H573.556V235.953H662.386V233.249H649.439H630.378V214.623V41.2828V24.6569H649.439H662.386V19.9531H409.352V22.6569H421.939C439.201 22.6569 440.999 26.8627 440.999 41.2828V214.623C440.999 229.043 439.201 233.249 421.939 233.249H409.352V235.953Z" fill="#DCE3DF"/>
<rect x="696.352" y="72.5" width="28" height="106" transform="rotate(-90 696.352 72.5)" fill="#DCE3DF"/>
<rect x="696.352" y="107.5" width="35" height="67" transform="rotate(-90 696.352 107.5)" fill="#DCE3DF"/>
<rect x="502.352" y="167.5" width="88" height="67" transform="rotate(-90 502.352 167.5)" fill="#DCE3DF"/>
</g>
<g clip-path="url(#clip3_879_1149)">
<path d="M420.648 19.9532L332.178 19.9531L332.178 22.6569L341.529 22.6569C358.791 22.6569 360.949 26.8628 360.949 41.2828L360.949 230.546L262.409 230.546L262.409 41.2828C262.409 26.8627 264.208 22.6569 281.47 22.6569L291.18 22.6569L291.18 19.9531L202.351 19.9531L202.351 22.6569L215.297 22.6569C232.56 22.6569 234.358 26.8627 234.358 41.2828L234.358 214.623C234.358 229.044 232.56 233.249 215.297 233.249L202.351 233.249L202.351 235.953L420.648 235.953L420.648 233.249L408.061 233.249C390.799 233.249 389.001 229.044 389.001 214.623L389.001 41.2828C389.001 26.8628 390.799 22.6569 408.061 22.6569L420.648 22.6569L420.648 19.9532Z" fill="#DCE3DF"/>
<path d="M191.385 235.953H27.1802V233.249H112.265C129.528 233.249 131.686 229.043 131.686 214.623V39.3607C131.686 31.6287 125.417 25.3606 117.686 25.3606H-1.59052V214.623V233.249H17.4701H27.1802V235.953H-61.6494V233.249H-48.7026H-29.642V214.623V41.2828V22.6569H-48.7026H-61.6494V19.9531H191.385V22.6569H178.798C161.535 22.6569 159.737 26.8627 159.737 41.2828V214.623C159.737 229.043 161.535 233.249 178.798 233.249H191.385V235.953Z" fill="#DCE3DF"/>
</g>
<path d="M987.729 124.545L986.639 123.465L993.065 117.048H977V115.497H993.065L986.639 109.08L987.729 108L996.001 116.273L987.729 124.545Z" fill="white"/>
<path d="M985.273 151.091L986.363 150.011L979.937 143.594H996.002V142.043H979.937L986.363 135.626L985.273 134.545L977.001 142.818L985.273 151.091Z" fill="white"/>
<path d="M299.729 124.545L298.639 123.465L305.065 117.048H289V115.497H305.065L298.639 109.08L299.729 108L308.001 116.273L299.729 124.545Z" fill="white"/>
<path d="M297.273 151.091L298.363 150.011L291.937 143.594H308.002V142.043H291.937L298.363 135.626L297.273 134.545L289.001 142.818L297.273 151.091Z" fill="white"/>
<g clip-path="url(#clip4_879_1149)">
<path d="M859.352 19.9532L947.822 19.9531L947.822 22.6569L938.471 22.6569C921.209 22.6569 919.051 26.8628 919.051 41.2828L919.051 230.546L1017.59 230.546L1017.59 41.2828C1017.59 26.8627 1015.79 22.6569 998.53 22.6569L988.82 22.6569L988.82 19.9531L1077.65 19.9531L1077.65 22.6569L1064.7 22.6569C1047.44 22.6569 1045.64 26.8627 1045.64 41.2828L1045.64 214.623C1045.64 229.044 1047.44 233.249 1064.7 233.249L1077.65 233.249L1077.65 235.953L859.352 235.953L859.352 233.249L871.939 233.249C889.201 233.249 890.999 229.044 890.999 214.623L890.999 41.2828C890.999 26.8628 889.201 22.6569 871.939 22.6569L859.352 22.6569L859.352 19.9532Z" fill="#DCE3DF"/>
<path d="M1093.35 235.953H1257.56V233.249H1172.47C1155.21 233.249 1153.05 229.043 1153.05 214.623V39.3607C1153.05 31.6287 1159.32 25.3606 1167.05 25.3606H1286.33V214.623V233.249H1267.27H1257.56V235.953H1346.39V233.249H1333.44H1314.38V214.623V41.2828V24.6569H1333.44H1346.39V19.9531H1093.35V22.6569H1105.94C1123.2 22.6569 1125 26.8627 1125 41.2828V214.623C1125 229.043 1123.2 233.249 1105.94 233.249H1093.35V235.953Z" fill="#DCE3DF"/>
<rect x="1186.35" y="167.5" width="88" height="67" transform="rotate(-90 1186.35 167.5)" fill="#DCE3DF"/>
</g>
</g>
<defs>
<clipPath id="clip0_879_1149">
<rect width="1280" height="260" fill="white"/>
</clipPath>
<clipPath id="clip1_879_1149">
<rect width="575" height="217" fill="white" transform="translate(353 19)"/>
</clipPath>
<clipPath id="clip2_879_1149">
<rect width="575" height="217" fill="white" transform="translate(353 19)"/>
</clipPath>
<clipPath id="clip3_879_1149">
<rect width="575" height="217" fill="white" transform="translate(-331 19)"/>
</clipPath>
<clipPath id="clip4_879_1149">
<rect width="575" height="217" fill="white" transform="translate(1037 19)"/>
</clipPath>
</defs>
</svg>
